<?xml version="1.0" encoding="utf-8"?>
<!-- Generator: Adobe Illustrator 16.0.0, SVG Export Plug-In . SVG Version: 6.00 Build 0)  -->
<!DOCTYPE svg PUBLIC "-//W3C//DTD SVG 1.1//EN" "http://www.w3.org/Graphics/SVG/1.1/DTD/svg11.dtd">
<svg version="1.1" id="Layer_1" xmlns="http://www.w3.org/2000/svg" xmlns:xlink="http://www.w3.org/1999/xlink" x="0px" y="0px"
	 width="18px" height="18px" viewBox="0 0 18 18" enable-background="new 0 0 18 18" xml:space="preserve">
<path fill="#FFFFFF" d="M0,2.993C0.004,1.342,1.342,0.004,2.993,0h12.014C16.658,0.004,17.996,1.342,18,2.993v12.014
	c-0.004,1.651-1.342,2.989-2.993,2.993H2.993C1.342,17.996,0.004,16.658,0,15.007V2.993z M2,2.993v12.014C2,15.548,2.45,16,2.993,16
	h12.014C15.548,16,16,15.55,16,15.007V2.993C16,2.452,15.55,2,15.007,2H2.993C2.452,2,2,2.45,2,2.993z M8.83,12.989L4,8.623h4.004V5
	h1.638v3.623h4.018L8.83,12.989z"/>
</svg>
