<?xml version="1.0" encoding="UTF-8"?>
<svg width="44px" height="44px" viewBox="0 0 44 44" version="1.1" xmlns="http://www.w3.org/2000/svg" xmlns:xlink="http://www.w3.org/1999/xlink">
    <!-- Generator: Sketch 46.1 (44463) - http://www.bohemiancoding.com/sketch -->
    <title>Group 23</title>
    <desc>Created with Sketch.</desc>
    <defs></defs>
    <g id="Page-1" stroke="none" stroke-width="1" fill="none" fill-rule="evenodd">
        <g id="theapolis-job-edit-1a-draft-approve" transform="translate(-1146.000000, -1904.000000)">
            <g id="Group-15" transform="translate(165.000000, 1875.000000)">
                <g id="Group-13" transform="translate(935.000000, 26.000000)">
                    <g id="Group-23" transform="translate(46.000000, 3.000000)">
                        <circle id="Oval" fill="#244372" cx="22" cy="22" r="22"></circle>
                        <g id="eye-copy" transform="translate(13.000000, 14.000000)" fill-rule="nonzero" fill="#FFFFFF">
                            <path d="M3.5,14.9142136 L2.5,15.9142136 L1.08578644,14.5 L3.82341299,11.7623734 C1.50216359,10.056266 0,7.95944356 0,7.95944356 C0,7.95944356 4.26934537,2 9.5351097,2 C10.6978653,2 11.8120366,2.290576 12.8423851,2.74340139 L15.2279221,0.357864376 L16.2279221,1.35786438 L3.08578644,14.5 L3.5,14.9142136 Z M6.95308786,13.4611257 L8.93006826,11.4841453 C9.12673707,11.5176561 9.32888301,11.5351097 9.5351097,11.5351097 C11.5100693,11.5351097 13.1107758,9.93440316 13.1107758,7.95944356 C13.1107758,7.75321688 13.0933222,7.55107093 13.0598114,7.35440212 L15.8178657,4.59634783 C17.8114399,6.20235319 19.0702194,7.95944356 19.0702194,7.95944356 C19.0702194,7.95944356 14.800874,13.9188871 9.5351097,13.9188871 C8.64031062,13.9188871 7.77428355,13.7468057 6.95308786,13.4611257 Z M6.23864534,9.3471411 L10.9228072,4.6629792 C10.4961309,4.48317018 10.0272396,4.38377743 9.5351097,4.38377743 C7.5601501,4.38377743 5.95944356,5.98448397 5.95944356,7.95944356 C5.95944356,8.45157341 6.05883631,8.92046475 6.23864534,9.3471411 Z" id="Shape"></path>
                        </g>
                    </g>
                </g>
            </g>
        </g>
    </g>
</svg>