<?xml version="1.0" encoding="UTF-8"?>
<svg width="30px" height="30px" viewBox="0 0 30 30" version="1.1" xmlns="http://www.w3.org/2000/svg" xmlns:xlink="http://www.w3.org/1999/xlink">
    <!-- Generator: Sketch 48.1 (47250) - http://www.bohemiancoding.com/sketch -->
    <title>Group 29</title>
    <desc>Created with Sketch.</desc>
    <defs>
        <path d="M13,26 C20.1797017,26 26,20.1797017 26,13 C26,5.82029825 20.1797017,0 13,0 C5.82029825,0 0,5.82029825 0,13 C0,20.1797017 5.82029825,26 13,26 Z" id="path-1"></path>
    </defs>
    <g id="Page-1" stroke="none" stroke-width="1" fill="none" fill-rule="evenodd">
        <g id="Group-29" transform="translate(2.000000, 2.000000)">
            <g id="Group-4-Copy-6">
                <g id="Oval-7">
                    <use fill="#FFFFFF" fill-rule="evenodd" xlink:href="#path-1"></use>
                    <path stroke="#A9A9A9" stroke-width="2" d="M13,27 C5.2680135,27 -1,20.7319865 -1,13 C-1,5.2680135 5.2680135,-1 13,-1 C20.7319865,-1 27,5.2680135 27,13 C27,20.7319865 20.7319865,27 13,27 Z"></path>
                </g>
            </g>
            <path d="M8.448,13.008 L9.264,13.008 L9.264,12.032 L8.224,12.032 L8.448,10.576 L9.424,10.576 C9.52000048,10.0319973 9.67199896,9.5200024 9.88,9.04 C10.088001,8.5599976 10.3599983,8.14400176 10.696,7.792 C11.0320017,7.43999824 11.437331,7.16000104 11.912,6.952 C12.386669,6.74399896 12.9386635,6.64 13.568,6.64 C14.7200058,6.64 15.5759972,6.90933064 16.136,7.448 C16.6960028,7.98666936 17.0453326,8.789328 17.184,9.856 L15.184,10.176 C15.0666661,9.59999712 14.8880012,9.1920012 14.648,8.952 C14.4079988,8.7119988 14.021336,8.592 13.488,8.592 C12.9759974,8.592 12.5733348,8.7786648 12.28,9.152 C11.9866652,9.5253352 11.7813339,9.99999712 11.664,10.576 L14.224,10.576 L14,12.032 L11.488,12.032 L11.488,13.008 L13.888,13.008 L13.648,14.464 L11.664,14.464 C11.7813339,15.0293362 11.9839986,15.4853316 12.272,15.832 C12.5600014,16.1786684 12.9546642,16.352 13.456,16.352 C14.0320029,16.352 14.4559986,16.2133347 14.728,15.936 C15.0000014,15.6586653 15.1679997,15.2320029 15.232,14.656 L17.328,14.656 C17.2426662,15.8506726 16.8826698,16.7546636 16.248,17.368 C15.6133302,17.9813364 14.666673,18.288 13.408,18.288 C12.799997,18.288 12.266669,18.1973342 11.808,18.016 C11.349331,17.8346658 10.957335,17.5786683 10.632,17.248 C10.306665,16.9173317 10.0426677,16.5173357 9.84,16.048 C9.63733232,15.5786643 9.48800048,15.0506696 9.392,14.464 L8.224,14.464 L8.448,13.008 Z" id="€" fill="#A9A9A9"></path>
        </g>
    </g>
</svg>