<?xml version="1.0" encoding="UTF-8"?>
<svg width="30px" height="30px" viewBox="0 0 30 30" version="1.1" xmlns="http://www.w3.org/2000/svg" xmlns:xlink="http://www.w3.org/1999/xlink">
    <!-- Generator: Sketch 48.1 (47250) - http://www.bohemiancoding.com/sketch -->
    <title>Group 30</title>
    <desc>Created with Sketch.</desc>
    <defs>
        <path d="M13,26 C20.1797017,26 26,20.1797017 26,13 C26,5.82029825 20.1797017,0 13,0 C5.82029825,0 0,5.82029825 0,13 C0,20.1797017 5.82029825,26 13,26 Z" id="path-1"></path>
    </defs>
    <g id="Page-1" stroke="none" stroke-width="1" fill="none" fill-rule="evenodd">
        <g id="Group-30" transform="translate(2.000000, 2.000000)">
            <g id="Group-29-Copy-2">
                <g id="Group-4-Copy-6">
                    <g id="Oval-7">
                        <use fill="#FFFFFF" fill-rule="evenodd" xlink:href="#path-1"></use>
                        <path stroke="#A9A9A9" stroke-width="2" d="M13,27 C5.2680135,27 -1,20.7319865 -1,13 C-1,5.2680135 5.2680135,-1 13,-1 C20.7319865,-1 27,5.2680135 27,13 C27,20.7319865 20.7319865,27 13,27 Z"></path>
                    </g>
                </g>
            </g>
            <polygon id="Shape" fill="#A9A9A9" fill-rule="nonzero" points="11 19.48 5 13.48 6.68 11.8 11 16.12 20.12 7 21.8 8.68 11 19.48"></polygon>
        </g>
    </g>
</svg>