<?xml version="1.0" encoding="UTF-8"?>
<svg width="30px" height="30px" viewBox="0 0 30 30" version="1.1" xmlns="http://www.w3.org/2000/svg" xmlns:xlink="http://www.w3.org/1999/xlink">
    <!-- Generator: Sketch 48.1 (47250) - http://www.bohemiancoding.com/sketch -->
    <title>Group 29 Copy</title>
    <desc>Created with Sketch.</desc>
    <defs>
        <path d="M13,26 C20.1797017,26 26,20.1797017 26,13 C26,5.82029825 20.1797017,0 13,0 C5.82029825,0 0,5.82029825 0,13 C0,20.1797017 5.82029825,26 13,26 Z" id="path-1"></path>
    </defs>
    <g id="Page-1" stroke="none" stroke-width="1" fill="none" fill-rule="evenodd">
        <g id="Group-29-Copy" transform="translate(2.000000, 2.000000)">
            <g id="Group-4-Copy-6">
                <g id="Oval-7">
                    <use fill="#FFFFFF" fill-rule="evenodd" xlink:href="#path-1"></use>
                    <path stroke="#A9A9A9" stroke-width="2" d="M13,27 C5.2680135,27 -1,20.7319865 -1,13 C-1,5.2680135 5.2680135,-1 13,-1 C20.7319865,-1 27,5.2680135 27,13 C27,20.7319865 20.7319865,27 13,27 Z"></path>
                </g>
            </g>
            <path d="M9.832,15.424 L12.12,15.424 L12.12,18 L9.832,18 L9.832,15.424 Z M9.832,9.648 L12.12,9.648 L12.12,12.224 L9.832,12.224 L9.832,9.648 Z M13.016,19.984 C13.6346698,18.8853278 14.0799986,17.773339 14.352,16.648 C14.6240014,15.522661 14.76,14.3466728 14.76,13.12 C14.76,11.8933272 14.6240014,10.717339 14.352,9.592 C14.0799986,8.46666104 13.6346698,7.35467216 13.016,6.256 L15.144,6.256 C15.4426682,6.71466896 15.7119988,7.21333064 15.952,7.752 C16.1920012,8.29066936 16.3946658,8.8533304 16.56,9.44 C16.7253342,10.0266696 16.8506662,10.6293302 16.936,11.248 C17.0213338,11.8666698 17.064,12.4906635 17.064,13.12 C17.064,13.7493365 17.0213338,14.3733302 16.936,14.992 C16.8506662,15.6106698 16.7253342,16.2133304 16.56,16.8 C16.3946658,17.3866696 16.1920012,17.9493306 15.952,18.488 C15.7119988,19.0266694 15.4426682,19.525331 15.144,19.984 L13.016,19.984 Z" id=":)" fill="#A9A9A9"></path>
        </g>
    </g>
</svg>