<?xml version="1.0" encoding="UTF-8"?>
<svg width="44px" height="44px" viewBox="0 0 44 44" version="1.1" xmlns="http://www.w3.org/2000/svg" xmlns:xlink="http://www.w3.org/1999/xlink">
    <!-- Generator: Sketch 46.1 (44463) - http://www.bohemiancoding.com/sketch -->
    <title>Group 15</title>
    <desc>Created with Sketch.</desc>
    <defs></defs>
    <g id="Page-1" stroke="none" stroke-width="1" fill="none" fill-rule="evenodd">
        <g id="theapolis-job-edit-1b-draft-approve" transform="translate(-1103.000000, -1903.000000)">
            <g id="Group-13" transform="translate(165.000000, 1875.000000)">
                <g id="Group-13-Copy-2" transform="translate(935.000000, 25.000000)">
                    <g id="Group-15" transform="translate(3.000000, 3.000000)">
                        <circle id="Oval" fill="#62C39F" cx="22" cy="22" r="22"></circle>
                        <g id="eye" transform="translate(12.000000, 16.000000)" fill-rule="nonzero" fill="#FFFFFF">
                            <path d="M9.5351097,0 C4.26934537,0 0,5.95944356 0,5.95944356 C0,5.95944356 4.26934537,11.9188871 9.5351097,11.9188871 C14.800874,11.9188871 19.0702194,5.95944356 19.0702194,5.95944356 C19.0702194,5.95944356 14.800874,0 9.5351097,0 Z M9.5351097,9.5351097 C7.5601501,9.5351097 5.95944356,7.93440316 5.95944356,5.95944356 C5.95944356,3.98448397 7.5601501,2.38377743 9.5351097,2.38377743 C11.5100693,2.38377743 13.1107758,3.98448397 13.1107758,5.95944356 C13.1107758,7.93440316 11.5100693,9.5351097 9.5351097,9.5351097 Z" id="Shape"></path>
                        </g>
                    </g>
                </g>
            </g>
        </g>
    </g>
</svg>