<?xml version="1.0" encoding="UTF-8"?>
<svg width="65px" height="40px" viewBox="0 0 65 40" version="1.1" xmlns="http://www.w3.org/2000/svg" xmlns:xlink="http://www.w3.org/1999/xlink">
    <!-- Generator: Sketch 40.1 (33804) - http://www.bohemiancoding.com/sketch -->
    <title>icon-blockquote</title>
    <desc>Created with Sketch.</desc>
    <defs></defs>
    <g id="Page-1" stroke="none" stroke-width="1" fill="none" fill-rule="evenodd">
        <g id="icon-blockquote" fill="#CD2036">
            <g id="Group-4">
                <path d="M65,10.163942 L65,0 L0,0 L0,40 L65,40 L65,28.7173007 C63.9534204,29.8865849 62.3574145,30.5787234 60.7614087,30.5787234 C56.9768158,30.5787234 54.3749083,27.5037417 54.3749083,22.6547322 C54.3749083,15.2665207 59.9644945,11.0723585 65,10.163942 Z M65,11.6402086 L65,22.1686169 C64.0917751,21.1523172 62.7813975,20.6441673 61.4710198,20.6441673 C60.2883346,20.6441673 58.8691123,21.1172414 58.0412326,21.708584 C57.686427,22.0633896 57.4498899,21.9451211 57.4498899,21.2355099 C57.3458096,16.135573 60.7223111,12.7759271 65,11.6402086 Z M51.0633896,10 C45.7413059,10.3548056 39,14.6124725 39,22.6547322 C39,27.5037417 41.6019076,30.5787234 45.5047689,30.5787234 C48.224945,30.5787234 50.8268525,28.3316214 50.8268525,25.6114453 C50.8268525,22.2999266 48.461482,20.6441673 46.21438,20.6441673 C44.9134263,20.6441673 43.6124725,21.1172414 42.6663243,21.8268525 C42.3115187,22.0633896 42.0749817,21.9451211 42.0749817,21.2355099 C41.8384446,15.5586207 46.4509171,11.8922964 51.5364637,11.3009538 L51.0633896,10 Z" id="Combined-Shape"></path>
            </g>
        </g>
    </g>
</svg>