<?xml version="1.0" encoding="UTF-8"?>
<svg width="1000px" height="1000px" viewBox="0 0 1000 1000" version="1.1" xmlns="http://www.w3.org/2000/svg" xmlns:xlink="http://www.w3.org/1999/xlink">
    <!-- Generator: Sketch 40.2 (33826) - http://www.bohemiancoding.com/sketch -->
    <title>instagram-border-background</title>
    <desc>Created with Sketch.</desc>
    <defs></defs>
    <g id="Page-1" stroke="none" stroke-width="1" fill="none" fill-rule="evenodd">
        <g id="instagram-border-background">
            <g id="Group-24">
                <rect id="Rectangle-256" fill="#631953" x="0" y="0" width="200" height="200"></rect>
                <rect id="Rectangle-256-Copy-9" fill="#631953" x="800" y="0" width="200" height="200"></rect>
                <rect id="Rectangle-256-Copy" fill="#87162D" x="200" y="0" width="200" height="200"></rect>
                <rect id="Rectangle-256-Copy-14" fill="#87162D" x="200" y="800" width="200" height="200"></rect>
                <rect id="Rectangle-256-Copy-2" fill="#CD2036" x="400" y="0" width="200" height="200"></rect>
                <rect id="Rectangle-256-Copy-15" fill="#CD2036" x="400" y="800" width="200" height="200"></rect>
                <rect id="Rectangle-256-Copy-3" fill="#244372" x="600" y="0" width="200" height="200"></rect>
                <rect id="Rectangle-256-Copy-16" fill="#244372" x="600" y="800" width="200" height="200"></rect>
                <rect id="Rectangle-256-Copy-6" fill="#244372" x="0" y="400" width="200" height="200"></rect>
                <rect id="Rectangle-256-Copy-10" fill="#244372" x="800" y="400" width="200" height="200"></rect>
                <rect id="Rectangle-256-Copy-7" fill="#62C39F" x="0" y="600" width="200" height="200"></rect>
                <rect id="Rectangle-256-Copy-11" fill="#62C39F" x="800" y="600" width="200" height="200"></rect>
                <rect id="Rectangle-256-Copy-8" fill="#631953" x="0" y="800" width="200" height="200"></rect>
                <rect id="Rectangle-256-Copy-12" fill="#631953" x="800" y="800" width="200" height="200"></rect>
                <rect id="Rectangle-256-Copy-5" fill="#1F1F1F" x="0" y="200" width="200" height="200"></rect>
                <rect id="Rectangle-256-Copy-13" fill="#1F1F1F" x="800" y="200" width="200" height="200"></rect>
            </g>
        </g>
    </g>
</svg>