<?xml version="1.0" encoding="UTF-8" standalone="no"?>
<svg width="83px" height="60px" viewBox="0 0 83 60" version="1.1" xmlns="http://www.w3.org/2000/svg" xmlns:xlink="http://www.w3.org/1999/xlink">
    <!-- Generator: Sketch 3.8.3 (29802) - http://www.bohemiancoding.com/sketch -->
    <title>latak-logo</title>
    <desc>Created with Sketch.</desc>
    <defs></defs>
    <g id="Page-1" stroke="none" stroke-width="1" fill="none" fill-rule="evenodd">
        <g id="latak-logo" fill="#FFFFFF">
            <path d="M69.5802687,22.0593703 C69.5802687,22.0593703 65.0809617,16.5722853 64.6432451,16.040951 C64.8050697,15.3711716 66.4243461,8.63122724 66.4243461,8.63122724 C66.4243461,8.63122724 59.6294322,11.02009 59.1123495,11.2023988 C58.8036459,11.0730349 53.8288289,9.01503534 53.8288289,9.01503534 L52.6525945,8.49672307 L51.301995,8.07179268 C51.301995,8.07179268 46.5288575,6.84017991 46.2012572,6.75570786 C45.8989098,6.25812808 42.093971,0 42.093971,0 L41.4121433,1.05924181 C41.4121433,1.05924181 38.1062495,6.20175626 37.8545797,6.59344613 C37.5668343,6.70618976 34.2203985,8.0447205 31.9404244,8.95540801 C30.1400831,9.58594988 25.6162104,11.1787535 25.2099311,11.3218248 C24.7088246,11.121525 18.1313947,8.50169201 18.1313947,8.50169201 L18.1934103,9.72199614 C18.1934103,9.72199614 18.4541849,14.9489827 18.4811557,15.5017348 C18.1229771,15.9273506 13.5712747,21.3578925 13.5712747,21.3578925 C13.5712747,21.3578925 20.4027794,21.4941101 21.3182392,21.5134718 C21.5168265,22.0693082 22.5279723,24.9007496 23.2132358,26.8235596 L19.2234529,26.8235596 L19.2234529,30.1681731 L34.2124962,30.1681731 L34.2124962,60 L40.084907,60 L40.084907,26.8235596 L24.9910728,26.8235596 C26.1523616,24.9490683 27.8250642,22.2517884 28.0509658,21.8858 C28.4538093,21.8364532 34.2317365,21.1149283 34.2317365,21.1149283 L35.514995,20.9538659 L36.8422313,20.3233241 C36.8422313,20.3233241 41.52518,18.1044335 41.8727077,17.9390876 C42.24085,18.1068323 47.7047483,20.5947312 47.7047483,20.5947312 L49.1122097,21.2364104 L50.2625041,21.26571 C50.2625041,21.26571 54.713195,21.3794817 55.2117246,21.390619 C55.4101401,21.9500535 56.4446492,24.8635682 57.139361,26.8235596 L42.6244533,26.8235596 L42.6244533,60 L48.4973794,60 L48.4973794,30.1681731 L63.4855639,30.1681731 L63.4855639,26.8235596 L58.8874786,26.8235596 C60.019048,24.9581495 61.6465703,22.2709788 61.9116396,21.8342257 C62.7044425,21.8566717 69.5802687,22.0593703 69.5802687,22.0593703 Z M27.109566,20.4235596 C27.109566,20.4235596 25.2312328,23.4529021 24.2494628,25.0415935 C23.6344607,23.3213108 22.4345195,19.9653887 22.4345195,19.9653887 C22.4345195,19.9653887 18.7424457,19.8922253 16.880776,19.8552152 C18.0353651,18.478475 19.8841506,16.2717498 19.8841506,16.2717498 L20.0817071,16.036496 C20.0817071,16.036496 19.901673,12.4249304 19.8236811,10.8646819 C21.3429767,11.4705504 25.1760888,12.9958449 25.1760888,12.9958449 C25.1760888,12.9958449 28.4457352,11.8463054 30.1783919,11.2361534 C29.6152699,12.9463268 28.4874798,16.3574213 28.4874798,16.3574213 C28.4874798,16.3574213 31.4743627,18.4613408 33.1819383,19.6648533 C30.9830482,19.9384879 27.109566,20.4235596 27.109566,20.4235596 L27.109566,20.4235596 Z M34.8218293,18.8992932 C32.9967505,17.6161062 30.801468,16.0668237 30.3479469,15.7448704 C30.5216249,15.2214179 31.2687322,12.9552367 31.8703347,11.1326622 C33.5329018,12.2157207 35.6751017,13.6150782 36.1468324,13.9221247 C36.0057942,14.4503748 35.3557473,16.9033198 34.8218293,18.8992932 L34.8218293,18.8992932 Z M41.860339,16.2066395 C41.860339,16.2066395 38.2892041,17.8995074 36.4878321,18.7562219 C36.9810363,16.9021204 37.9607449,13.2298993 37.9607449,13.2298993 C37.9607449,13.2298993 34.7192717,11.1179268 33.2145781,10.1352752 C34.9912125,9.42368816 38.6731509,7.95579353 38.6731509,7.95579353 L38.9055804,7.86224031 C38.9055804,7.86224031 41.1481047,4.37232812 42.0556623,2.96286143 C42.9336722,4.40625402 45.1878781,8.11565646 45.1878781,8.11565646 C45.1878781,8.11565646 48.7871863,9.04210752 50.6146701,9.51364318 C49.0912515,10.6900835 45.8071749,13.2264725 45.8071749,13.2264725 C45.8071749,13.2264725 47.1065815,16.9675734 47.7779301,18.9049475 C45.7996162,18.0029985 41.860339,16.2066395 41.860339,16.2066395 L41.860339,16.2066395 Z M49.4815545,19.0152924 C48.7487057,16.9033198 47.8435532,14.2971943 47.664378,13.7759692 C48.1032971,13.4360248 50.2235081,11.7978154 51.9156228,10.4932105 C52.3213867,12.1007496 53.0800038,15.1043907 53.2263674,15.6852431 C52.8903495,15.9847505 51.0628657,17.6080531 49.4815545,19.0152924 L49.4815545,19.0152924 Z M51.0539327,19.7177982 C52.5381835,18.400514 54.6281598,16.5397301 54.6281598,16.5397301 L54.9853077,16.2234311 C54.9853077,16.2234311 54.023465,12.4148212 53.5647903,10.6047548 C55.3397069,11.3386164 59.0676845,12.8808738 59.0676845,12.8808738 C59.0676845,12.8808738 62.5589379,11.6528593 64.2223638,11.0673806 C63.8104155,12.7751553 62.9317184,16.4328122 62.9317184,16.4328122 C62.9317184,16.4328122 65.0058902,18.9601199 66.1810939,20.3910045 C64.3384927,20.3370315 61.0425627,20.2402227 61.0425627,20.2402227 C61.0425627,20.2402227 59.1388049,23.37991 58.1578937,24.9953309 C57.5379098,23.2459199 56.3335021,19.851617 56.3335021,19.851617 C56.3335021,19.851617 53.0264058,19.7661169 51.0539327,19.7177982 L51.0539327,19.7177982 Z" id="Fill-1"></path>
            <path d="M73.4946366,35.6448062 L81.82843,30.1628614 L75.9960459,30.1628614 L68.3382394,35.1158706 L68.3382394,30.1563504 L63.3756194,30.1628614 L48.4442969,45.0361105 L53.3885355,45.0361105 L55.8339418,42.6177768 L63.3756194,42.6177768 L63.3756194,45.0361105 L68.3341165,45.0338831 L68.3382394,38.5156565 L74.9309585,45.092311 L82.9294211,45.092311 L73.4946366,35.6448062 L73.4946366,35.6448062 Z M63.3940007,40.1231955 L58.4489031,40.1231955 L63.3940007,35.1720711 L63.3940007,40.1231955 L63.3940007,40.1231955 Z" id="Fill-2"></path>
            <path d="M13.3926148,30.1889055 L13.3926148,42.608867 L5.89354075,42.608867 L5.89354075,30.1563504 L0,30.1563504 L0,45.0294281 L13.3926148,45.0294281 L13.3926148,45.0429642 L15.8361314,45.0429642 L15.8361314,42.6246305 L23.3006761,42.6427929 L25.765838,45.0429642 L34.1769361,45.0429642 L19.2849531,30.1889055 L13.3926148,30.1889055 L13.3926148,30.1889055 Z M15.8168911,40.1300493 L15.8168911,35.1789248 L20.7623323,40.1300493 L15.8168911,40.1300493 L15.8168911,40.1300493 Z" id="Fill-3"></path>
        </g>
    </g>
</svg>