<?xml version="1.0" encoding="UTF-8"?>
<svg width="120px" height="49px" viewBox="0 0 120 49" version="1.1" xmlns="http://www.w3.org/2000/svg" xmlns:xlink="http://www.w3.org/1999/xlink">
    <!-- Generator: Sketch 40.1 (33804) - http://www.bohemiancoding.com/sketch -->
    <title>theapolis-logo</title>
    <desc>Created with Sketch.</desc>
    <defs></defs>
    <g id="Page-1" stroke="none" stroke-width="1" fill="none" fill-rule="evenodd">
        <g id="theapolis-logo">
            <polygon id="back" fill="#CE1F35" points="63.9921869 19.0615514 63.9921869 16.7843551 63.9921869 5.83127103 -5.60747667e-05 5.60747663e-05 -5.60747667e-05 47.8279065 45.2514393 43.4400561 51.9181682 48.0858505 51.9181682 42.8013645 63.9921869 41.6462243 63.9921869 25.2822056 63.9921869 22.9865047"></polygon>
            <path d="M82.7112897,27.9665327 C83.8711963,27.9665327 84.735028,27.5717664 85.3030654,26.7816729 C85.8705421,25.9918598 86.1545607,24.8627944 86.1545607,23.3939159 C86.1545607,21.9376542 85.8705421,20.8111121 85.3030654,20.0151308 C84.735028,19.2188692 83.8711963,18.8207383 82.7112897,18.8207383 C81.5505421,18.8207383 80.6867103,19.2188692 80.1192336,20.0151308 C79.5511963,20.8111121 79.2674579,21.9376542 79.2674579,23.3939159 C79.2674579,24.8627944 79.5511963,25.9918598 80.1192336,26.7816729 C80.6867103,27.5717664 81.5505421,27.9665327 82.7112897,27.9665327 L82.7112897,27.9665327 Z M82.7297944,30.3362523 C81.7420374,30.3362523 80.8597009,30.1758785 80.0822243,29.8548505 C79.3044673,29.5341028 78.6441869,29.071486 78.1013832,28.4664393 C77.5577383,27.8616729 77.1416636,27.1335421 76.8514766,26.2817664 C76.5615701,25.430271 76.4163364,24.4674673 76.4163364,23.3939159 C76.4163364,22.3200841 76.5615701,21.3572804 76.8514766,20.5055047 C77.1416636,19.6540093 77.5613832,18.9258785 78.1103551,18.3211121 C78.6596075,17.7163458 79.3232523,17.253729 80.100729,16.9324206 C80.8782056,16.6116729 81.7546542,16.4512991 82.7297944,16.4512991 C83.7169907,16.4512991 84.5993271,16.6116729 85.3773645,16.9324206 C86.1545607,17.253729 86.811757,17.7163458 87.3486729,18.3211121 C87.8855888,18.9258785 88.2957757,19.6540093 88.5800748,20.5055047 C88.8638131,21.3572804 89.0056822,22.3200841 89.0056822,23.3939159 C89.0056822,24.4674673 88.8668972,25.430271 88.5890467,26.2817664 C88.311757,27.1335421 87.9040935,27.8616729 87.3671776,28.4664393 C86.8302617,29.071486 86.1730654,29.5341028 85.3955888,29.8548505 C84.6178318,30.1758785 83.7293271,30.3362523 82.7297944,30.3362523 Z M92.0234579,16.7843271 L94.7817757,16.7843271 L94.7817757,27.6331121 L101.039159,27.6331121 L100.743364,30.0031121 L92.0234579,30.0031121 L92.0234579,16.7843271 Z M103.575981,30.0030841 L106.334299,30.0030841 L106.334299,16.7842991 L103.575981,16.7842991 L103.575981,30.0030841 Z M111.740383,25.6894766 C111.801785,26.5039626 112.064215,27.0963925 112.527112,27.4667664 C112.989729,27.8371402 113.671879,28.0221869 114.573,28.0221869 C115.004495,28.0221869 115.368981,27.9756449 115.665336,27.8831215 C115.961131,27.7905981 116.201972,27.667514 116.387299,27.513028 C116.572346,27.3588224 116.704682,27.1768598 116.784869,26.9668598 C116.865056,26.7571402 116.90571,26.5289159 116.90571,26.2819065 C116.90571,25.936486 116.775897,25.6123738 116.516551,25.3098505 C116.257486,25.0076075 115.782252,24.7886355 115.091131,24.6526542 L113.369636,24.3377944 C112.69029,24.2147103 112.092252,24.0540561 111.573841,23.8566729 C111.05543,23.6592897 110.62029,23.403028 110.268421,23.0881682 C109.916832,22.7735888 109.648234,22.3880748 109.463187,21.9310654 C109.27814,21.4746168 109.185336,20.9315327 109.185336,20.3020935 C109.185336,19.6726542 109.311785,19.1172336 109.564963,18.6358318 C109.817579,18.1544299 110.169449,17.7534953 110.62029,17.4324673 C111.07057,17.1114393 111.61057,16.867514 112.240009,16.7012523 C112.869449,16.5344299 113.56057,16.4511589 114.313654,16.4511589 C115.276178,16.4511589 116.078327,16.5621869 116.720383,16.784243 C117.361879,17.0065794 117.88029,17.2998505 118.275336,17.6637757 C118.670383,18.0279813 118.963654,18.4505047 119.154869,18.9319065 C119.346084,19.4133084 119.472533,19.913215 119.534215,20.4313458 L116.924215,20.7647103 C116.788234,20.0365794 116.526084,19.5122804 116.137206,19.1912523 C115.748607,18.8702243 115.158981,18.7098505 114.368888,18.7098505 C113.900103,18.7098505 113.514589,18.7499439 113.211785,18.8301308 C112.909542,18.9105981 112.665897,19.0154579 112.48085,19.1449907 C112.295804,19.274243 112.165991,19.4256449 112.092252,19.5983551 C112.017953,19.7713458 111.980944,19.9502243 111.980944,20.135271 C111.980944,20.6292897 112.119729,20.9993832 112.397579,21.2461121 C112.67515,21.4931215 113.147579,21.6843364 113.813748,21.8200374 L115.627766,22.1719065 C117.059636,22.4559252 118.108794,22.9157383 118.775243,23.5510654 C119.441972,24.1869533 119.775056,25.103215 119.775056,26.3001308 C119.775056,26.8805047 119.666832,27.4143364 119.450944,27.9016262 C119.235056,28.3894766 118.914028,28.8153645 118.488421,29.1792897 C118.062813,29.5434953 117.528701,29.8272336 116.887206,30.030785 C116.244869,30.2346168 115.492346,30.3363925 114.628514,30.3363925 C112.826271,30.3363925 111.446832,29.9508785 110.490477,29.1792897 C109.533841,28.4079813 109.018514,27.2444299 108.944776,25.6894766 L111.740383,25.6894766 Z M74.2782336,19.348486 C74.1237477,18.8488598 73.8526262,18.4106355 73.4637477,18.0340935 C73.0748692,17.6575514 72.5500093,17.3553084 71.8902897,17.1268037 C71.2294486,16.8985794 70.3933738,16.7844673 69.3815047,16.7844673 L66.7765514,16.7844673 L66.7765514,19.0616636 L69.3444953,19.0616636 C69.8258972,19.0616636 70.2237477,19.1051215 70.5386075,19.1911963 C70.8534673,19.2778318 71.1032804,19.4011963 71.2883271,19.5615701 C71.4736542,19.7219439 71.6031869,19.9196075 71.6772056,20.1537196 C71.7509439,20.3883925 71.7882336,20.6600748 71.7882336,20.968486 C71.7882336,21.2648411 71.7543084,21.5393271 71.6864579,21.7922243 C71.6186075,22.0454019 71.4918785,22.2582056 71.3068318,22.4309159 C71.121785,22.6039065 70.8716916,22.7398879 70.5571121,22.8382991 C70.2422523,22.937271 69.8444019,22.9863364 69.363,22.9863364 L66.7765514,22.9863364 L66.7765514,25.2820374 L69.4558037,25.2820374 C70.4427196,25.2820374 71.2605701,25.1648411 71.908514,24.9304486 C72.5564579,24.6960561 73.0748692,24.3781121 73.4637477,23.9768972 C73.8526262,23.5759626 74.1237477,23.1099813 74.2782336,22.5792336 C74.4321589,22.048486 74.5098224,21.4933458 74.5098224,20.912972 C74.5098224,20.3698879 74.4321589,19.8483925 74.2782336,19.348486 Z M9.98329907,19.1725794 L6.00283178,19.1725794 L6.00283178,16.7843551 L16.7405888,16.7843551 L16.7405888,19.1725794 L12.7604019,19.1725794 L12.7604019,30.0031402 L9.98329907,30.0031402 L9.98329907,19.1725794 Z M20.1656636,16.7843271 L22.9242617,16.7843271 L22.9242617,21.8941402 L28.1636075,21.8941402 L28.1636075,16.7843271 L30.9219252,16.7843271 L30.9219252,30.0031121 L28.1636075,30.0031121 L28.1636075,24.4491869 L22.9242617,24.4491869 L22.9242617,30.0031121 L20.1656636,30.0031121 L20.1656636,16.7843271 Z M35.3865981,16.7843271 L44.4022991,16.7843271 L44.4022991,19.1355421 L38.1449159,19.1355421 L38.1449159,22.0236729 L44.0322056,22.0236729 L44.0322056,24.3933925 L38.1449159,24.3933925 L38.1449159,27.6518972 L44.7911776,27.6518972 L44.5136075,30.0031121 L35.3865981,30.0031121 L35.3865981,16.7843271 Z M52.0085607,16.784215 L54.6376262,16.784215 L59.5991215,30.003 L56.636972,30.003 L55.5816449,26.9483271 L50.9532336,26.9483271 L49.8979065,30.003 L47.0470654,30.003 L52.0085607,16.784215 Z M54.6373458,24.6711308 L53.0265981,19.9316916 L51.4346355,24.6711308 L54.6373458,24.6711308 Z" id="front" fill="#FEFEFE"></path>
        </g>
    </g>
</svg>