<?xml version="1.0" encoding="UTF-8" standalone="no"?>
<svg width="100px" height="40px" viewBox="0 0 100 40" version="1.1" xmlns="http://www.w3.org/2000/svg" xmlns:xlink="http://www.w3.org/1999/xlink">
    <!-- Generator: sketchtool 39 (31667) - http://www.bohemiancoding.com/sketch -->
    <title>0BB14F2C-E342-417B-A44A-4BD3CE747954</title>
    <desc>Created with sketchtool.</desc>
    <defs></defs>
    <g id="Page-1" stroke="none" stroke-width="1" fill="none" fill-rule="evenodd">
        <g id="theapolis-desktop-6a-profile" transform="translate(-287.000000, -2974.000000)">
            <g id="Group-14" transform="translate(0.000000, 2534.000000)">
                <g id="Group-10" transform="translate(287.000000, 440.000000)">
                    <circle id="Oval-63" fill="#FFFFFF" cx="20" cy="20" r="20"></circle>
                    <circle id="Oval-63-Copy" fill="#FFFFFF" cx="80" cy="20" r="20"></circle>
                    <g id="1466399188_38-instagram" transform="translate(7.000000, 6.000000)" fill="#631953">
                        <g id="Group">
                            <path d="M13.608,6.858 C9.828,6.858 6.696,9.936 6.696,13.77 C6.696,17.604 9.774,20.682 13.608,20.682 C17.442,20.682 20.52,17.55 20.52,13.77 C20.52,9.99 17.388,6.858 13.608,6.858 L13.608,6.858 Z M13.608,18.198 C11.178,18.198 9.18,16.2 9.18,13.77 C9.18,11.34 11.178,9.342 13.608,9.342 C16.038,9.342 18.036,11.34 18.036,13.77 C18.036,16.2 16.038,18.198 13.608,18.198 L13.608,18.198 Z" id="Shape"></path>
                            <ellipse id="Oval" cx="20.79" cy="6.696" rx="1.566" ry="1.566"></ellipse>
                            <path d="M24.84,2.646 C23.436,1.188 21.438,0.432 19.17,0.432 L8.046,0.432 C3.348,0.432 0.216,3.564 0.216,8.262 L0.216,19.332 C0.216,21.654 0.972,23.652 2.484,25.11 C3.942,26.514 5.886,27.216 8.1,27.216 L19.116,27.216 C21.438,27.216 23.382,26.46 24.786,25.11 C26.244,23.706 27,21.708 27,19.386 L27,8.262 C27,5.994 26.244,4.05 24.84,2.646 L24.84,2.646 Z M24.516,19.386 C24.516,21.06 24.03,22.41 23.058,23.328 C22.086,24.246 20.736,24.732 19.116,24.732 L8.1,24.732 C6.48,24.732 5.13,24.246 4.158,23.328 C3.186,22.356 2.7,21.006 2.7,19.332 L2.7,8.262 C2.7,6.642 3.186,5.292 4.158,4.32 C5.076,3.402 6.48,2.916 8.1,2.916 L19.224,2.916 C20.844,2.916 22.194,3.402 23.166,4.374 C24.084,5.346 24.624,6.696 24.624,8.262 L24.624,19.386 L24.516,19.386 Z" id="Shape"></path>
                        </g>
                    </g>
                </g>
            </g>
        </g>
    </g>
</svg>