<svg xmlns="http://www.w3.org/2000/svg">
  <symbol id="icon-facebook" width="40" height="40" viewbox="0 0 40 40">
    <path d="M17.1767,30.88 L21.6727,30.88 L21.6727,19.9987 L24.672,19.9987 L25.0693,16.2493 L21.6727,16.2493 L21.6773,14.372 C21.6773,13.3947 21.7707,12.87 23.1733,12.87 L25.048,12.87 L25.048,9.12 L22.048,9.12 C18.4447,9.12 17.1767,10.9393 17.1767,13.998 L17.1767,16.2493 L14.9307,16.2493 L14.9307,19.9993 L17.1767,19.9993 L17.1767,30.88 Z M20,40 C8.9547,40 0,31.0453 0,20 C0,8.954 8.9547,0 20,0 C31.0453,0 40,8.954 40,20 C40,31.0453 31.0453,40 20,40 L20,40 Z" fill-rule="evenodd"/>
  </symbol>

  <symbol id="icon-instagram" width="40" height="40" viewbox="0 0 40 40">
    <path d="M20,40 C31.046,40 40,31.0457 40,20 C40,8.9543 31.046,0 20,0 C8.954,0 0,8.9543 0,20 C0,31.0457 8.954,40 20,40 L20,40 Z M25.352,33.0122 C27.608,33.0121 29.497,32.2776 30.861,30.9659 C32.278,29.6017 33.012,27.6604 33.012,25.4042 L33.012,14.5958 C33.012,12.3921 32.278,10.5032 30.913,9.139 C29.549,7.7224 27.608,6.9879 25.404,6.9878 L14.596,6.9878 C10.031,6.9879 6.988,10.031 6.988,14.5958 L6.988,25.3518 C6.988,27.6079 7.722,29.5492 9.192,30.9659 C10.608,32.3301 12.497,33.0122 14.648,33.0122 L25.352,33.0122 Z M25.457,9.4014 C27.031,9.4014 28.343,9.8736 29.287,10.818 C30.179,11.7625 30.704,13.0742 30.704,14.5958 L30.704,25.4042 L30.599,25.4042 C30.599,27.0308 30.126,28.3425 29.182,29.2344 C28.238,30.1264 26.926,30.5986 25.352,30.5986 L14.648,30.5986 C13.074,30.5986 11.762,30.1264 10.818,29.2344 C9.874,28.29 9.401,26.9783 9.401,25.3518 L9.401,14.5958 C9.401,13.0217 9.874,11.71 10.818,10.7656 C11.71,9.8736 13.074,9.4014 14.648,9.4014 L25.457,9.4014 Z M20,13.2316 C16.327,13.2316 13.284,16.2223 13.284,19.9475 C13.284,23.6728 16.275,26.6635 20,26.6635 C23.725,26.6635 26.716,23.6203 26.716,19.9475 C26.716,16.2747 23.673,13.2316 20,13.2316 L20,13.2316 Z M20,24.2499 C17.639,24.2499 15.698,22.3086 15.698,19.9475 C15.698,17.5865 17.639,15.6451 20,15.6451 C22.361,15.6451 24.302,17.5865 24.302,19.9475 C24.302,22.3086 22.361,24.2499 20,24.2499 L20,24.2499 Z M26.978,14.5958 C27.819,14.5958 28.5,13.9145 28.5,13.0742 C28.5,12.2338 27.819,11.5526 26.978,11.5526 C26.138,11.5526 25.457,12.2338 25.457,13.0742 C25.457,13.9145 26.138,14.5958 26.978,14.5958 L26.978,14.5958 Z" fill-rule="evenodd"/>
  </symbol>

  <symbol id="icon-youtube" width="40" height="40" viewbox="0 0 40 40">
    <path d="M20,40 C31.0457,40 40,31.0457 40,20 C40,8.9543 31.0457,0 20,0 C8.9543,0 0,8.9543 0,20 C0,31.0457 8.9543,40 20,40 L20,40 Z M27.8111,19.2308 L12.1887,19.2308 C9.705,19.2309 7.6923,21.0634 7.6923,23.5316 L7.6923,27.8379 C7.6923,30.3058 9.7051,32.3077 12.1887,32.3077 L27.8111,32.3077 C30.2941,32.3077 32.3077,30.3061 32.3077,27.8379 L32.3077,23.5656 C32.3077,21.0975 30.2942,19.2309 27.8111,19.2308 L27.8111,19.2308 Z M19.1102,29.992 L17.8191,29.992 L17.8191,29.3334 C17.5792,29.5771 17.3324,29.7628 17.0733,29.8885 C16.8155,30.0192 16.5657,30.081 16.3229,30.081 C16.023,30.081 15.8005,29.992 15.6473,29.8119 C15.4977,29.632 15.4205,29.3661 15.4205,29.0064 L15.4205,23.9818 L16.7122,23.9818 L16.7122,28.5926 C16.7122,28.7347 16.7403,28.8374 16.7922,28.9 C16.8482,28.9658 16.9367,28.9956 17.0579,28.9956 C17.1511,28.9956 17.2726,28.9542 17.4176,28.8699 C17.5644,28.7849 17.697,28.6774 17.8185,28.5469 L17.8185,23.9818 L19.1102,23.9818 L19.1102,29.992 Z M21.7507,29.9917 L20.4445,29.9917 L20.4445,21.6806 L21.7507,21.6806 L21.7507,24.4693 C21.9256,24.2876 22.1104,24.1474 22.3039,24.0526 C22.5014,23.9559 23.0622,23.9095 23.2629,23.9095 C23.6722,23.9095 23.9843,23.8709 24.1995,24.1273 C24.4159,24.3837 24.523,24.759 24.523,25.251 L24.523,28.586 L24.5232,28.586 C24.5232,29.0105 24.4223,29.3366 24.2196,29.5644 C24.0182,29.7918 23.7241,30.0691 23.3418,30.0691 C23.0874,30.0691 22.4997,30.0266 22.303,29.9384 C22.1055,29.8515 21.9193,29.7171 21.7507,29.5314 L21.7507,29.9917 Z M26.7504,27.0324 L26.7504,28.1648 C26.7504,28.4809 26.7916,28.7004 26.8763,28.8232 C26.9628,28.9462 27.1084,29.0059 27.3143,29.0059 C27.529,29.0059 27.6784,28.9539 27.7639,28.8501 C27.8478,28.7455 27.8924,28.5184 27.8924,28.1646 L27.8924,27.891 L29.2218,27.891 L29.2218,28.1994 C29.2218,28.8153 29.0611,29.2795 28.7345,29.5927 C28.4125,29.9022 27.929,30.0569 27.2847,30.0569 C26.7058,30.0569 26.2495,29.8927 25.9176,29.5618 C25.5869,29.2341 25.4184,28.7785 25.4184,28.1994 L25.4184,25.4997 C25.4184,24.9803 25.6017,24.553 25.9681,24.2253 C26.3339,23.8976 26.8026,23.7341 27.3822,23.7341 C27.974,23.7341 28.4285,23.886 28.7461,24.1897 C29.0635,24.4941 29.2221,24.9304 29.2221,25.5 L29.2221,27.0324 L26.7504,27.0324 Z M15.2523,22.7333 L13.7459,22.7333 L13.7459,29.6946 L12.2897,29.6946 L12.2897,22.7333 L10.7837,22.7333 L10.7837,21.5486 L15.2523,21.5486 L15.2523,22.7333 Z M22.2914,24.8638 C22.1995,24.8638 22.1072,24.8821 22.0173,24.9219 C21.9274,24.9605 21.8389,25.0236 21.751,25.1057 L21.751,28.8498 C21.8549,28.9465 21.9579,29.021 22.0574,29.0637 C22.1571,29.1052 22.2595,29.1284 22.3689,29.1284 C22.5278,29.1284 23.0059,29.0859 23.0804,28.9998 C23.1538,28.9148 23.1921,28.7785 23.1921,28.5863 L23.1921,25.4818 C23.1921,25.2779 23.148,25.1247 23.0564,25.0196 C22.9624,24.9161 22.4652,24.8638 22.2914,24.8638 L22.2914,24.8638 Z M27.3265,24.7851 C27.12,24.7851 26.9741,24.8393 26.8839,24.9515 C26.7931,25.0566 26.7504,25.2378 26.7504,25.49 L26.7504,26.0974 L27.8924,26.0974 L27.8924,25.49 C27.8924,25.2378 27.8463,25.0566 27.7561,24.9515 C27.6685,24.8393 27.5229,24.7851 27.3265,24.7851 L27.3265,24.7851 Z M19.7876,17.8119 C20.4246,17.8119 20.9245,17.6428 21.2893,17.306 C21.6511,16.9669 21.8326,16.5046 21.8326,15.9115 L21.8326,12.3321 C21.8326,11.8051 21.6469,11.3707 21.2787,11.036 C20.9066,10.7022 20.4316,10.5342 19.8511,10.5342 C19.2142,10.5342 18.7059,10.6931 18.329,11.0109 C17.9521,11.3287 17.7637,11.7545 17.7637,12.2931 L17.7637,15.8842 C17.7637,16.4733 17.9477,16.9395 18.315,17.2888 C18.683,17.6367 19.1739,17.8119 19.7876,17.8119 L19.7876,17.8119 Z M24.3349,10.7091 L22.935,10.7091 L22.935,16.499 C22.935,16.9119 23.0177,17.2206 23.1805,17.4251 C23.3454,17.6326 23.5878,17.7379 23.9138,17.7379 C24.1769,17.7379 24.4479,17.6622 24.7269,17.5162 C25.0082,17.3684 25.2774,17.152 25.5335,16.8696 L25.5335,17.6365 L26.9365,17.6365 L26.9365,10.7091 L25.5335,10.7091 L25.5335,15.9679 C25.4038,16.1185 25.2589,16.242 25.1024,16.3404 C24.9441,16.4377 24.8133,16.4858 24.7104,16.4858 C24.579,16.4858 24.4828,16.4493 24.4258,16.3747 C24.3671,16.3017 24.3349,16.1835 24.3349,16.0207 L24.3349,10.7091 Z M13.9442,7.6923 L12.3542,7.6923 L14.2339,13.3631 L14.2339,17.6367 L15.8124,17.6367 L15.8124,13.1882 L17.6493,7.6923 L16.0453,7.6923 L15.0684,11.4467 L14.9692,11.4467 L13.9442,7.6923 Z M19.2061,12.2401 C19.2061,12.0892 19.2598,11.9679 19.3655,11.8728 C19.4737,11.7797 19.6121,11.7341 19.7829,11.7341 C19.9688,11.7341 20.1187,11.7797 20.233,11.8728 C20.3468,11.9679 20.4039,12.0892 20.4039,12.2401 L20.4039,16.0143 C20.4039,16.1995 20.3477,16.3462 20.2353,16.4526 C20.1232,16.559 19.9727,16.6112 19.7826,16.6112 C19.5975,16.6112 19.4544,16.5607 19.3551,16.4545 C19.2559,16.3504 19.2058,16.2047 19.2058,16.0143 L19.2058,12.2401 L19.2061,12.2401 Z" fill-rule="evenodd"/>
  </symbol>

  <symbol id="icon-link" width="40" height="40" viewbox="0 0 40 40">
    <path d="M20,40 C31.046,40 40,31.0457 40,20 C40,8.9543 31.046,0 20,0 C8.954,0 0,8.9543 0,20 C0,31.0457 8.954,40 20,40 L20,40 Z M25.827,21.2505 L26.151,21.5742 C27.412,22.8348 27.412,24.8868 26.151,26.1478 C25.107,27.1912 23.523,27.3682 22.293,26.6848 C22.192,26.6287 22.094,26.566 21.998,26.499 C21.957,26.4696 21.915,26.4401 21.875,26.4092 C21.846,26.3855 21.816,26.3623 21.787,26.3383 C21.715,26.2783 21.644,26.216 21.577,26.1482 L21.253,25.8249 L18.738,23.3095 C18.07,22.6416 17.76,21.7527 17.801,20.8769 C17.802,20.8443 17.802,20.8122 17.805,20.7801 C17.81,20.703 17.82,20.626 17.832,20.5486 C17.835,20.5265 17.837,20.5048 17.841,20.4831 C17.855,20.3987 17.873,20.3143 17.894,20.2311 C17.898,20.2175 17.901,20.204 17.904,20.1908 C17.928,20.1014 17.955,20.0127 17.987,19.9248 C17.99,19.9178 17.992,19.9113 17.994,19.9043 C18.028,19.8125 18.066,19.7219 18.108,19.6333 C18.11,19.6306 18.115,19.6325 18.117,19.6302 C18.161,19.5388 18.196,19.4358 18.266,19.3654 L18.266,19.365 C18.408,19.2233 18.494,19.015 18.637,18.8574 C18.673,18.8183 18.703,18.7753 18.741,18.7377 C19.048,18.4307 19.402,18.2 19.78,18.0424 L17.643,15.9048 C17.305,16.1282 16.985,16.388 16.688,16.685 C16.614,16.7589 16.542,16.8344 16.473,16.9107 C16.435,16.9521 16.4,16.9951 16.364,17.0373 C16.334,17.0729 16.302,17.1074 16.273,17.1434 C16.225,17.2022 16.18,17.2622 16.134,17.3226 C16.118,17.3428 16.102,17.3625 16.087,17.3827 C16.036,17.4527 15.986,17.524 15.938,17.5952 C15.931,17.6064 15.922,17.6173 15.915,17.6285 C15.863,17.7071 15.813,17.7869 15.764,17.8674 C15.762,17.8716 15.852,17.8755 15.85,17.8798 C15.698,18.1345 15.547,18.3982 15.547,18.6681 L15.547,18.6688 C14.386,20.8931 14.973,23.5499 16.782,25.3588 L17.261,25.8849 L19.55,28.1975 C19.648,28.2958 19.738,28.388 19.841,28.4786 C19.861,28.4968 19.876,28.5146 19.897,28.532 C22.307,30.586 25.927,30.4756 28.204,28.1979 C30.6,25.8028 30.598,21.9191 28.202,19.5241 L25.889,17.2111 C26.261,18.5318 26.24,19.9399 25.827,21.2505 L25.827,21.2505 Z M21.734,20.5776 C21.804,20.5774 21.839,20.4296 21.883,20.3387 C21.884,20.3364 21.89,20.3639 21.891,20.3612 C21.933,20.2725 21.971,20.1819 22.005,20.0901 C22.007,20.0832 22.01,20.0766 22.012,20.0696 C22.044,19.9817 22.072,19.8931 22.096,19.8036 C22.099,19.7905 22.101,19.7769 22.105,19.7634 C22.126,19.6801 22.144,19.5957 22.159,19.5113 C22.162,19.4896 22.164,19.468 22.168,19.4459 C22.179,19.3688 22.189,19.2918 22.195,19.2144 C22.197,19.1822 22.197,19.1497 22.199,19.1176 C22.239,18.2418 21.929,17.3528 21.261,16.685 L18.746,14.1691 L18.422,13.8458 C18.355,13.7781 18.284,13.7161 18.212,13.6557 C18.183,13.6317 18.154,13.6085 18.124,13.5857 C18.084,13.5543 18.043,13.5249 18.001,13.4955 C17.906,13.4285 17.808,13.3654 17.707,13.3092 C16.477,12.6255 14.893,12.8024 13.849,13.8462 C12.588,15.1072 12.588,17.1589 13.849,18.4199 L14.172,18.7432 C13.759,20.0537 13.738,21.4619 14.11,22.7829 L11.797,20.47 C9.402,18.0745 9.401,14.1912 11.796,11.7958 C14.073,9.518 17.693,9.4077 20.102,11.4613 C20.123,11.4791 20.138,11.4969 20.159,11.5151 C20.261,11.6053 20.351,11.6978 20.449,11.7958 L22.739,14.1083 L23.218,14.6345 C25.027,16.4434 25.614,19.1005 24.452,21.3248 L24.452,21.3256 C24.452,21.5955 24.302,21.8591 24.15,22.1143 C24.148,22.1185 24.239,22.122 24.236,22.1267 C24.187,22.2068 24.137,22.287 24.085,22.3655 C24.077,22.3768 24.069,22.3876 24.062,22.3988 C24.014,22.4701 23.964,22.5413 23.912,22.6114 C23.898,22.6315 23.881,22.6513 23.866,22.671 C23.82,22.7314 23.775,22.791 23.727,22.8499 C23.698,22.8859 23.666,22.9204 23.636,22.956 C23.6,22.9978 23.565,23.0408 23.527,23.0822 C23.457,23.1585 23.386,23.2336 23.312,23.3075 C23.015,23.6049 22.694,23.8627 22.357,24.0857 L20.22,21.9455 C20.598,21.7875 20.952,21.5509 21.259,21.2435 C21.297,21.206 21.327,21.1502 21.363,21.1111 C21.506,20.9535 21.592,20.9648 21.733,20.5776 L21.734,20.5776 Z" fill-rule="evenodd"/>
  </symbol>

  <symbol id="instagram-logo" width="50" height="50" viewbox="0 0 50 50">
    <path d="M45.9677419,4.13306452 C43.3467742,1.41129032 39.6169355,0 35.3830645,0 L14.6169355,0 C5.84677419,0 0,5.84677419 0,14.6169355 L0,35.2822581 C0,39.6169355 1.41129032,43.3467742 4.23387097,46.0685484 C6.95564516,48.6895161 10.5846774,50 14.7177419,50 L35.2822581,50 C39.6169355,50 43.2459677,48.5887097 45.8669355,46.0685484 C48.5887097,43.4475806 50,39.7177419 50,35.3830645 L50,14.6169355 C50,10.3830645 48.5887097,6.75403226 45.9677419,4.13306452 Z M45.3629032,35.3830645 C45.3629032,38.5080645 44.4556452,41.0282258 42.641129,42.7419355 C40.8266129,44.4556452 38.3064516,45.3629032 35.2822581,45.3629032 L14.7177419,45.3629032 C11.6935484,45.3629032 9.1733871,44.4556452 7.35887097,42.7419355 C5.54435484,40.9274194 4.63709677,38.4072581 4.63709677,35.2822581 L4.63709677,14.6169355 C4.63709677,11.5927419 5.54435484,9.07258065 7.35887097,7.25806452 C9.07258065,5.54435484 11.6935484,4.63709677 14.7177419,4.63709677 L35.483871,4.63709677 C38.5080645,4.63709677 41.0282258,5.54435484 42.8427419,7.35887097 C44.5564516,9.1733871 45.5645161,11.6935484 45.5645161,14.6169355 L45.5645161,35.3830645 L45.3629032,35.3830645 Z M25,11.9959677 C17.9435484,11.9959677 12.0967742,17.7419355 12.0967742,24.8991935 C12.0967742,32.0564516 17.8427419,37.8024194 25,37.8024194 C32.1572581,37.8024194 37.9032258,31.9556452 37.9032258,24.8991935 C37.9032258,17.8427419 32.0564516,11.9959677 25,11.9959677 Z M25,33.1653226 C20.4637097,33.1653226 16.733871,29.4354839 16.733871,24.8991935 C16.733871,20.3629032 20.4637097,16.6330645 25,16.6330645 C29.5362903,16.6330645 33.266129,20.3629032 33.266129,24.8991935 C33.266129,29.4354839 29.5362903,33.1653226 25,33.1653226 Z M38.4072581,14.6169355 C40.0218002,14.6169355 41.3306452,13.3080905 41.3306452,11.6935484 C41.3306452,10.0790063 40.0218002,8.77016129 38.4072581,8.77016129 C36.792716,8.77016129 35.483871,10.0790063 35.483871,11.6935484 C35.483871,13.3080905 36.792716,14.6169355 38.4072581,14.6169355 Z" fill-rule="evenodd"/>
  </symbol>

  <symbol id="icon-lang" width="30" height="30" viewbox="0 0 30 30">
    <path d="M6.97130986,17.2278592 C7.01115493,17.267662 7.05657746,17.3088169 7.10626761,17.3499296 C8.99322535,19.1713521 11.4672113,20.1786761 14.1005352,20.1786761 L14.1009577,20.1786761 C14.202493,20.1786761 14.3036056,20.1765211 14.4051831,20.1736056 L14.4055634,20.1736056 C14.4137183,20.1736056 14.4218732,20.1736056 14.4304507,20.1730986 C16.9990423,20.0886761 19.4134507,19.0428169 21.2284085,17.2278592 C23.0442958,15.4119718 24.0905775,12.9976056 24.1746197,10.4285493 L24.1746197,10.4285493 L24.1746197,10.4285493 C24.2646197,7.64995775 23.1912535,4.93132394 21.2292958,2.96983099 C19.249,0.989408451 16.5783662,-0.0684507042 13.7706197,0.024084507 L13.7706197,0.024084507 L13.7706197,0.024084507 C11.2006761,0.108084507 8.78584507,1.1543662 6.97130986,2.9693662 C5.15592958,4.78478873 4.10960563,7.19915493 4.02602817,9.76867606 C4.02602817,9.76867606 4.02602817,9.76867606 4.02602817,9.76909859 C3.9351831,12.5455352 5.00808451,15.2637042 6.96961972,17.2257042 C6.97004225,17.226507 6.97088732,17.2273944 6.97130986,17.2278592 L6.97130986,17.2278592 Z M6.55016901,14.0464648 C6.54632394,14.0601972 6.53985915,14.0751972 6.53601408,14.0888873 C5.96487324,13.010831 5.63449296,11.8184366 5.56853521,10.5741549 C5.61395775,10.5767324 5.65895775,10.5788451 5.70438028,10.5822676 C5.8101831,10.5895775 5.91602817,10.5998451 6.02140845,10.6114225 C6.10878873,10.6208451 6.19578873,10.6302676 6.28232394,10.6422676 C6.38985915,10.6572676 6.4965493,10.6761127 6.60323944,10.6949577 C6.6838169,10.7095352 6.76435211,10.7219577 6.84404225,10.7382254 C7.02269014,10.7755352 7.20007042,10.817493 7.37533803,10.865493 C7.42933803,10.8804507 7.48202817,10.8989155 7.53560563,10.9147606 C7.66667606,10.953338 7.79740845,10.9936056 7.9263662,11.0386056 C7.94609859,11.0454507 7.96578873,11.0536056 7.98552113,11.0604507 C7.96278873,11.0956056 7.94478873,11.1294507 7.92294366,11.1641408 C7.79267606,11.3702535 7.66929577,11.5737465 7.55491549,11.7738592 C7.53049296,11.8167465 7.50391549,11.8599718 7.47995775,11.9023944 C7.34969014,12.1350423 7.23184507,12.363 7.12346479,12.5866479 C7.09688732,12.6410704 7.07330986,12.6941831 7.04846479,12.7481831 C6.96319718,12.9315634 6.88523944,13.1115211 6.81450704,13.2884789 C6.79523944,13.3364366 6.77423944,13.3857042 6.75623944,13.4332817 C6.67650704,13.6432817 6.60797183,13.847662 6.55016901,14.0464648 L6.55016901,14.0464648 Z M10.2983521,10.4589296 C10.5151549,10.1825493 10.7439155,9.90874648 10.9796056,9.63667606 C11.0502958,9.55483099 11.1239859,9.47429577 11.1964085,9.39333803 C11.3703662,9.19753521 11.5490563,9.00342254 11.7328592,8.81104225 C11.7791268,8.76219718 11.8262394,8.71377465 11.8729718,8.66492958 L15.5337746,12.3257324 C15.484507,12.3736901 15.4348169,12.4212676 15.3851268,12.4688451 C15.1949014,12.6500704 15.0029437,12.8261831 14.8101408,12.9984507 C14.7266056,13.0730282 14.6430282,13.1488732 14.5590704,13.2216761 C14.2882676,13.4556338 14.0161972,13.6835915 13.741507,13.8982394 C13.7398169,13.899507 13.7380845,13.9008169 13.7368169,13.9020845 C13.6155493,13.7003239 13.4853239,13.5044789 13.3507887,13.3120986 C13.3139437,13.259831 13.2749437,13.2092958 13.2372535,13.1574507 C13.1219437,12.9997606 13.0020282,12.845493 12.8777606,12.6942676 C12.832338,12.639 12.7873803,12.5837324 12.7406479,12.5293099 C12.5761127,12.3381972 12.4064225,12.1505493 12.2273521,11.9710141 C12.0482394,11.7919014 11.8605915,11.6226338 11.6694789,11.4581408 C11.6146338,11.4110282 11.5589014,11.3660282 11.5040563,11.3201408 C11.3532535,11.196338 11.1989859,11.0768028 11.0417606,10.9619577 C10.9899155,10.9238451 10.9389155,10.8848451 10.8862254,10.848 C10.6938451,10.7130423 10.498,10.5827746 10.296662,10.4615493 C10.297507,10.460662 10.297507,10.4597746 10.2983521,10.4589296 L10.2983521,10.4589296 Z M13.5263944,7.11304225 C13.6018169,7.04919718 13.6763521,6.98150704 13.7521972,6.91850704 C13.9951549,6.7175493 14.238493,6.52390141 14.4831831,6.33878873 C14.4849155,6.33747887 14.4861408,6.3366338 14.4878732,6.3353662 C14.6078732,6.53243662 14.7364085,6.72397183 14.8692113,6.91250704 C14.9060986,6.96477465 14.9454789,7.01535211 14.9832113,7.06677465 C15.0954366,7.21973239 15.2120141,7.36926761 15.3328592,7.51538028 C15.3782394,7.57064789 15.423662,7.62591549 15.4703521,7.68029577 C15.6318873,7.86709859 15.7976901,8.05047887 15.9729577,8.22616901 C16.1486056,8.40185915 16.3324507,8.56808451 16.5196338,8.72966197 C16.5727465,8.77546479 16.627169,8.81961972 16.6811268,8.86419718 C16.8294366,8.98673239 16.9810845,9.105 17.1361972,9.21895775 C17.1858873,9.25538028 17.2343521,9.29307042 17.2848873,9.32864789 C17.4734225,9.46191549 17.6654225,9.59040845 17.8632958,9.71040845 C17.8624085,9.71171831 17.8616056,9.71298592 17.8602958,9.71429577 C17.6752254,9.9593662 17.4811127,10.2036338 17.2797746,10.4469718 C17.2163521,10.5228169 17.148662,10.5977746 17.0843521,10.6736197 C16.9429718,10.8394225 16.8016338,11.0048028 16.6533662,11.169338 C16.6370986,11.187338 16.6190563,11.205338 16.602831,11.2232958 L12.9754507,7.59549296 C12.9934507,7.57964789 13.0106056,7.56207042 13.0285634,7.5461831 C13.1934789,7.39711268 13.3601268,7.25484507 13.5263944,7.11304225 L13.5263944,7.11304225 Z M15.8409155,5.40561972 C15.9977606,5.30877465 16.1528732,5.21539437 16.3054085,5.12839437 C16.3683662,5.09239437 16.4295915,5.06066197 16.4917465,5.02643662 C16.606169,4.96385915 16.7197042,4.90216901 16.8310845,4.84601408 C16.9000423,4.81085915 16.9668873,4.77916901 17.0346197,4.74659155 C17.1365775,4.69732394 17.2376901,4.65021127 17.3362676,4.60652113 C17.4043803,4.57652113 17.4711831,4.54825352 17.5376479,4.52083099 C17.6336056,4.48140845 17.7269859,4.44498592 17.8195634,4.41114085 C17.8829437,4.38802817 17.9464085,4.36529577 18.0080986,4.34471831 C18.1002535,4.31387324 18.1897465,4.28771831 18.2780141,4.26287324 C18.3345915,4.24698592 18.3915915,4.22987324 18.4460141,4.21656338 C18.5402817,4.19387324 18.6293944,4.17714085 18.718507,4.16176056 C18.7613944,4.15449296 18.8067746,4.1441831 18.8488169,4.13860563 C18.9764648,4.12102817 19.0989577,4.11076056 19.2129155,4.11076056 C19.5274507,4.11076056 19.7536761,4.17849296 19.8873662,4.31171831 C19.9165211,4.34129577 19.9430141,4.37598592 19.9662113,4.41498592 C19.9739014,4.42783099 19.9794789,4.44367606 19.9863239,4.45783099 C20.0004789,4.48567606 20.014169,4.51394366 20.0257465,4.54567606 C20.032169,4.56494366 20.0373239,4.58678873 20.0425211,4.6073662 C20.0510563,4.6386338 20.0596338,4.66952113 20.0656338,4.70378873 C20.0699014,4.72778873 20.0724789,4.75394366 20.0759014,4.7796338 C20.0797465,4.81432394 20.0836338,4.84947887 20.0852817,4.88716901 C20.0870563,4.91543662 20.0870563,4.94585915 20.0870563,4.97585915 C20.0870563,5.01443662 20.0865915,5.05428169 20.0844789,5.09543662 C20.0827465,5.12843662 20.080169,5.16228169 20.0767042,5.1965493 C20.0733239,5.23897183 20.068169,5.28266197 20.0621268,5.32766197 C20.0570141,5.36408451 20.0519014,5.40135211 20.0449718,5.43950704 C20.0372817,5.48619718 20.0278592,5.53504225 20.0176338,5.58430986 C20.0090563,5.62373239 20.0009014,5.66357746 19.9910141,5.70430986 C19.9790563,5.75569014 19.9644789,5.80926761 19.9498592,5.86280282 C19.9387465,5.90564789 19.9276338,5.94764789 19.9143239,5.99133803 C19.8975915,6.04833803 19.8779014,6.10702817 19.8582535,6.1661831 C19.8440563,6.20987324 19.830831,6.25271831 19.8145211,6.29771831 C19.7913662,6.36283099 19.7652535,6.43052113 19.7390986,6.49825352 C19.7227887,6.54025352 19.7082535,6.5813662 19.6910986,6.62421127 C19.6559437,6.7103662 19.6174507,6.79943662 19.5771831,6.88943662 C19.5656056,6.91639437 19.5552535,6.94170423 19.542831,6.96912676 C19.4897183,7.08608451 19.432338,7.20604225 19.3710282,7.32857746 C19.3509155,7.36973239 19.327338,7.41257746 19.3059155,7.45415493 C19.2626479,7.53811268 19.2189155,7.62249296 19.1718451,7.70907042 C19.1443803,7.75922535 19.1139577,7.81102817 19.0852254,7.86202817 C19.0398451,7.94256338 18.9948028,8.02271831 18.9464648,8.10452113 C18.9134225,8.1606338 18.8778451,8.21809859 18.8431549,8.2746338 C18.8093521,8.33078873 18.7741972,8.38690141 18.7386197,8.44385915 C18.7343521,8.44128169 18.729662,8.43916901 18.7253521,8.43659155 C18.7039296,8.42374648 18.6833944,8.40916901 18.6619296,8.39628169 C18.5025493,8.29947887 18.3470563,8.19705634 18.1949014,8.0903662 C18.1409014,8.0526338 18.0882535,8.01321127 18.0355211,7.97425352 C17.9121408,7.8834507 17.791338,7.78914085 17.6726056,7.69191549 C17.6233803,7.6511831 17.5736056,7.61133803 17.5252676,7.56980282 C17.3654225,7.43184507 17.2086197,7.29 17.0587042,7.14004225 C16.908662,6.99008451 16.7669437,6.83323944 16.6289014,6.67301408 C16.5873662,6.62505634 16.5479014,6.57574648 16.5076338,6.52690141 C16.4099437,6.40821127 16.314831,6.28652113 16.2240282,6.16267606 C16.1854507,6.10998592 16.1460282,6.05771831 16.1087183,6.00456338 C16.0020704,5.85291549 15.9004507,5.69780282 15.8040704,5.53880282 C15.7903803,5.51653521 15.7749577,5.49511268 15.7616479,5.47242254 C15.7586901,5.46773239 15.7569577,5.46295775 15.7539577,5.45830986 C15.7569155,5.45657746 15.7599155,5.45442254 15.7629577,5.45230986 C15.7891127,5.436 15.8143803,5.42188732 15.8409155,5.40561972 L15.8409155,5.40561972 Z M20.3539296,8.73992958 C20.4238169,8.61866197 20.4902394,8.49828169 20.5549296,8.37912676 C20.5771972,8.33712676 20.6015775,8.29470423 20.6234648,8.25316901 C20.7070423,8.09421127 20.7854225,7.93740845 20.8586901,7.78271831 C20.8771127,7.74371831 20.893,7.70607042 20.9109155,7.66702817 C20.9640704,7.55133803 21.0150282,7.43649296 21.0626056,7.32342254 C21.0852958,7.26853521 21.1059155,7.21504225 21.1272958,7.161 C21.1658732,7.06461972 21.2019155,6.96946479 21.2357183,6.87566197 C21.255831,6.8195493 21.2746761,6.76428169 21.2935211,6.7085493 C21.3243239,6.61643662 21.3522958,6.52605634 21.3783662,6.43605634 C21.393831,6.38421127 21.4095915,6.3323662 21.4229437,6.28178873 C21.4503662,6.18067606 21.4735211,6.08125352 21.4949014,5.98314085 C21.5026338,5.94760563 21.5124366,5.91076056 21.5197887,5.87560563 C21.5206761,5.86871831 21.5232113,5.86149296 21.5240986,5.85460563 C22.1813099,6.99819718 22.560493,8.27974648 22.6321127,9.62252113 C22.5832676,9.61994366 22.5343803,9.61740845 22.4855352,9.61394366 C22.378,9.60583099 22.2704648,9.59552113 22.1633521,9.58394366 C22.0733944,9.57367606 21.9838169,9.56378873 21.8942817,9.55094366 C21.7820141,9.53509859 21.6697465,9.51494366 21.5584085,9.49440845 C21.4786761,9.47983099 21.3985634,9.46740845 21.3192958,9.45067606 C21.1371831,9.41209859 20.9563803,9.36756338 20.7773099,9.31702817 C20.7147746,9.2994507 20.6534648,9.27802817 20.5909296,9.2591831 C20.4637042,9.2201831 20.3364366,9.17995775 20.2113239,9.13533803 C20.1865211,9.12633803 20.1616338,9.11602817 20.1367887,9.10660563 C20.1752817,9.04364789 20.2104789,8.98191549 20.2472817,8.91984507 C20.2832394,8.85992958 20.3192394,8.79950704 20.3539296,8.73992958 L20.3539296,8.73992958 Z M12.2444225,14.9565634 C12.1171549,15.0370986 11.9899296,15.1167887 11.8648169,15.1909014 C11.7893944,15.2359014 11.7148592,15.2770563 11.6398592,15.3194789 C11.5245915,15.3850141 11.4106338,15.4492817 11.2975211,15.5088169 C11.2212535,15.5491268 11.145831,15.5871972 11.0704085,15.6249718 C10.9624085,15.6788873 10.855338,15.7307324 10.7499155,15.7791549 C10.6762254,15.8134648 10.6034225,15.846 10.5314225,15.8768873 C10.4277324,15.9214225 10.3270423,15.9621549 10.2272394,16.0002676 C10.158662,16.0263803 10.0901268,16.053 10.0237042,16.0761127 C9.92343662,16.1112254 9.82659155,16.1412254 9.73105634,16.169493 C9.67105634,16.1870704 9.6093662,16.2067606 9.55152113,16.2217606 C9.44952113,16.2479155 9.35314085,16.2667606 9.25756338,16.284338 C9.21171831,16.2929155 9.16329577,16.3048732 9.1191831,16.311338 C8.98249296,16.3310282 8.85184507,16.3426056 8.73095775,16.3426056 C8.653,16.3426056 8.58015493,16.3382958 8.51242254,16.3301408 C8.48846479,16.3271831 8.46957746,16.3207606 8.44688732,16.3169155 C8.40619718,16.3095634 8.36335211,16.3031831 8.32735211,16.2925352 C8.29261972,16.2821831 8.26477465,16.2676479 8.23435211,16.254338 C8.21504225,16.2457606 8.19277465,16.2398028 8.17566197,16.2299577 C8.14308451,16.2119577 8.11739437,16.1896901 8.09123944,16.1674225 C8.07366197,16.1481127 8.05435211,16.1301127 8.03466197,16.1130423 C8.0128169,16.0877324 7.99139437,16.0624225 7.97339437,16.032 C7.96523944,16.0182676 7.95966197,16.0011972 7.95197183,15.9861549 C7.93739437,15.956662 7.9228169,15.9266197 7.91123944,15.8927746 C7.90397183,15.8722394 7.89970423,15.848662 7.89370423,15.8267746 C7.88512676,15.7937324 7.8765493,15.7611549 7.8705493,15.7248169 C7.86623944,15.6990845 7.86412676,15.6708169 7.86112676,15.6429296 C7.85770423,15.6065493 7.85385915,15.5691972 7.8525493,15.5298169 C7.85128169,15.4989718 7.85212676,15.4663521 7.8525493,15.4342394 C7.85343662,15.3931268 7.85428169,15.3515493 7.85723944,15.3078592 C7.85939437,15.2727465 7.86323944,15.2367042 7.86712676,15.1998592 C7.87223944,15.1544789 7.87823944,15.1082113 7.8855493,15.0606338 C7.89159155,15.0215915 7.8988169,14.9813662 7.90608451,14.9410986 C7.9155493,14.8913662 7.92623944,14.840831 7.93823944,14.7889859 C7.94766197,14.7460986 7.95792958,14.702831 7.96950704,14.6582958 C7.98366197,14.604338 7.99908451,14.5490704 8.01535211,14.4929155 C8.02904225,14.4471127 8.04277465,14.4008028 8.05777465,14.3532254 C8.07661972,14.2945352 8.09761972,14.2336901 8.11904225,14.1728451 C8.13619718,14.1244225 8.15246479,14.0764225 8.17130986,14.0267324 C8.19573239,13.9620423 8.22273239,13.8951972 8.25015493,13.8283521 C8.27073239,13.778662 8.28957746,13.7302394 8.311,13.6792394 C8.34269014,13.6063944 8.37738028,13.5309718 8.41211268,13.4560141 C8.43395775,13.4080141 8.45411268,13.3613239 8.47726761,13.3129014 C8.52222535,13.2194789 8.57111268,13.1234789 8.62080282,13.0270986 C8.63791549,12.9936761 8.65295775,12.9615211 8.67095775,12.9276761 C8.74038028,12.7956761 8.81491549,12.6607606 8.89376056,12.5228028 C8.9091831,12.4953803 8.9271831,12.4666479 8.94349296,12.4388028 C9.00814085,12.3278451 9.07460563,12.216 9.14525352,12.1011972 C9.17394366,12.0553521 9.20567606,12.0073521 9.23478873,11.9606197 C9.28667606,11.8792394 9.3393662,11.7973944 9.39378873,11.7147042 C9.4036338,11.7202817 9.41478873,11.7249718 9.42421127,11.7309718 C9.46190141,11.7532394 9.49790141,11.777662 9.5356338,11.8003944 C9.68432394,11.8908169 9.83039437,11.985507 9.9735493,12.0844648 C10.0300845,12.1238873 10.0857746,12.1645775 10.141507,12.2053099 C10.2678873,12.2978451 10.3912676,12.3938028 10.5125352,12.4932254 C10.5622254,12.534338 10.6128028,12.5741831 10.6620704,12.6161831 C10.8266056,12.7575634 10.9872958,12.9032535 11.1415211,13.0570986 C11.2949014,13.2104789 11.4397042,13.3707042 11.5802817,13.5343944 C11.6239718,13.5853521 11.6659718,13.6380845 11.7083944,13.6899296 C11.805662,13.8090423 11.8998873,13.9303099 11.9907746,14.0541127 C12.0327746,14.1115352 12.0747324,14.1685352 12.115,14.2268028 C12.2135352,14.3686479 12.3073803,14.5138732 12.3969577,14.6612535 C12.4200704,14.6993662 12.4449155,14.735831 12.4672254,14.7739437 C12.4732254,14.7837887 12.4779155,14.7940986 12.483493,14.8039437 C12.4723803,14.8112113 12.4603803,14.8197887 12.4492254,14.8275211 C12.3806901,14.8725634 12.313,14.9132535 12.2444225,14.9565634 L12.2444225,14.9565634 Z M10.2644648,17.6104225 C10.3947324,17.5701127 10.5271549,17.5251127 10.6616479,17.4758451 C10.7550704,17.4415775 10.849338,17.4064225 10.9452958,17.3674648 C11.0849859,17.3109296 11.2272113,17.2484366 11.3707465,17.1828169 C11.4662817,17.1391268 11.5609718,17.0967465 11.6582394,17.0491268 C11.8120423,16.9737042 11.9684225,16.890169 12.1261127,16.8053239 C12.2173803,16.7560563 12.3073803,16.7102113 12.3994507,16.6574789 C12.5836761,16.5529859 12.7705211,16.4381408 12.9585915,16.3207606 C13.0190141,16.2829859 13.0772817,16.2512958 13.138169,16.2123803 C13.1450141,16.2311831 13.1522817,16.2496056 13.1587465,16.2680282 C13.2101268,16.4141408 13.2564366,16.5619437 13.2992817,16.7106338 C13.3095493,16.7449437 13.3215493,16.7787465 13.3309718,16.8134789 C13.3815493,16.9969437 13.4252394,17.1819718 13.4638169,17.3683521 C13.4749718,17.4232394 13.483507,17.478507 13.4937746,17.5337324 C13.5181972,17.667 13.5413099,17.8006901 13.5597746,17.9352254 C13.5692394,18.0046479 13.5769296,18.0745352 13.5846197,18.1442958 C13.5983521,18.2672958 13.6098873,18.3906761 13.6184648,18.5145211 C13.6214648,18.5526338 13.6231972,18.5912113 13.6253099,18.6297887 C12.3827606,18.5625211 11.1903239,18.230493 10.1131549,17.6619296 C10.1620845,17.6477324 10.2147746,17.6258873 10.2644648,17.6104225 L10.2644648,17.6104225 Z M15.1640141,18.5770563 C15.1622817,18.5350563 15.1554366,18.4939437 15.1524366,18.4524085 C15.1395915,18.254831 15.121169,18.0582254 15.0967465,17.8623803 C15.0894366,17.8032676 15.0843239,17.7441127 15.0757042,17.6854225 C15.0405493,17.4381972 14.9969014,17.1927042 14.9437465,16.9489014 C14.9325915,16.8969718 14.9184789,16.8456338 14.9064789,16.794169 C14.860169,16.5966761 14.8083662,16.4009155 14.7500563,16.2067606 C14.7294789,16.1378028 14.7089437,16.0692676 14.6866761,16.0006901 C14.6172535,15.7851549 14.5422958,15.5722394 14.4587183,15.3618592 C14.4505634,15.342169 14.4449859,15.321169 14.436831,15.3014366 C14.4886761,15.2620141 14.5400986,15.2200563 14.5915211,15.1797887 C14.6600986,15.1266338 14.7286338,15.0726761 14.797169,15.0186761 C14.9728592,14.8794085 15.147662,14.7362958 15.3216197,14.5898028 C15.3738873,14.5456479 15.4261549,14.5032676 15.4784225,14.4582676 C15.699493,14.2689296 15.918831,14.0739296 16.1365211,13.8734366 C16.183169,13.8305493 16.2290563,13.7860141 16.2753239,13.7427465 C16.3910141,13.6343239 16.5075493,13.5263239 16.6228592,13.4149437 L19.7335211,16.5256056 C18.4464366,17.6545352 16.860662,18.365831 15.1640141,18.5770563 L15.1640141,18.5770563 Z M20.7931549,15.4132394 L17.6919155,12.3120423 C17.7142254,12.2875775 17.7338732,12.2623521 17.7561831,12.2379296 C18.0140986,11.9534366 18.2643239,11.6667887 18.5025493,11.3779859 C18.5197042,11.3569859 18.5351268,11.3359859 18.5522817,11.3150282 C18.7707746,11.0480704 18.9790845,10.7794225 19.1795775,10.5099296 C19.2035775,10.4782394 19.2301127,10.4465493 19.2541127,10.4148169 C19.2841549,10.4272394 19.3163099,10.4362394 19.3466901,10.4482394 C19.5463803,10.5283521 19.7486056,10.6011972 19.9534085,10.6680423 C20.0129437,10.6877746 20.0724789,10.7078873 20.1324789,10.7263099 C20.371507,10.7995775 20.6131549,10.866 20.8578028,10.9217324 C20.8933803,10.9298451 20.9293803,10.9358451 20.964493,10.9435775 C21.1818028,10.9902254 21.4002535,11.0292676 21.6200986,11.0622254 C21.6822113,11.0712254 21.7443239,11.0811127 21.8064789,11.0892676 C22.0558169,11.1213803 22.3056197,11.1466479 22.5566901,11.1603803 C22.564,11.1608451 22.5712676,11.1621127 22.5781972,11.1625352 C22.384507,12.7216479 21.7683239,14.1874648 20.7931549,15.4132394 L20.7931549,15.4132394 Z M18.2214789,2.69598592 C18.181169,2.70498592 18.1409014,2.71440845 18.1002535,2.72425352 C17.9335634,2.76494366 17.7647606,2.8103662 17.5899155,2.86690141 C17.5856479,2.86821127 17.5818028,2.86994366 17.5779577,2.87121127 C17.4048451,2.9273662 17.2274225,2.99378873 17.0474648,3.06574648 C17.0037746,3.08290141 16.960507,3.10047887 16.9163521,3.11847887 C16.7338592,3.19432394 16.5478592,3.27616901 16.3585211,3.36697183 C16.3362535,3.37812676 16.3130986,3.39059155 16.2899437,3.40170423 C16.1164507,3.4865493 15.940338,3.57866197 15.7621127,3.67592958 C15.7171549,3.70035211 15.673,3.72392958 15.6275775,3.74919718 C15.4506197,3.84815493 15.2719718,3.95142254 15.091169,4.06242254 C15.0834366,4.04053521 15.0740141,4.01869014 15.0663239,3.99684507 C15.0144789,3.85246479 14.9673239,3.70635211 14.9232113,3.55935211 C14.9103239,3.51735211 14.8957887,3.4758169 14.8837887,3.43339437 C14.8306761,3.24485915 14.7835211,3.0546338 14.7432113,2.86267606 C14.7333662,2.81467606 14.7260986,2.76583099 14.7166761,2.71740845 C14.688831,2.57256338 14.6635211,2.42729577 14.6434085,2.28122535 C14.6335634,2.21269014 14.6262958,2.14369014 14.6181408,2.07469014 C14.6035634,1.94573239 14.5911408,1.81588732 14.5821408,1.68608451 C14.5795634,1.64623944 14.5774507,1.6068169 14.5752958,1.56739437 C15.9129577,1.64023944 17.1923099,2.019 18.3324366,2.67029577 C18.2960141,2.67756338 18.2583662,2.68787324 18.2214789,2.69598592 L18.2214789,2.69598592 Z M13.0362113,1.62012676 C13.0387887,1.66123944 13.0456338,1.70197183 13.0482113,1.74266197 C13.0610986,1.94577465 13.0803662,2.148 13.1056338,2.34980282 C13.1129014,2.40891549 13.1184789,2.46807042 13.1270563,2.52676056 C13.1630563,2.77909859 13.2080563,3.0293662 13.2629014,3.27785915 C13.2735915,3.32670423 13.2873239,3.37466197 13.2984366,3.42308451 C13.3468592,3.62661972 13.4012817,3.828 13.4617042,4.02807042 C13.4827042,4.09791549 13.5041268,4.16729577 13.5272817,4.23671831 C13.597507,4.45225352 13.6737746,4.66521127 13.758662,4.87512676 C13.7680845,4.89785915 13.774507,4.9218169 13.7839296,4.9445493 C13.7518169,4.96812676 13.7200845,4.9955493 13.6883944,5.01912676 C13.423169,5.21666197 13.158831,5.42188732 12.8957183,5.63653521 C12.8700282,5.65753521 12.8442958,5.67638028 12.8190282,5.69738028 C12.5315352,5.93433803 12.2461549,6.18367606 11.962507,6.44078873 C11.937662,6.46347887 11.9119718,6.48405634 11.8867042,6.50674648 L8.78504225,3.40550704 C10.0104366,2.43038028 11.4766338,1.81423944 13.0362113,1.62012676 L13.0362113,1.62012676 Z M7.67267606,4.46556338 L10.7842254,7.57622535 C10.7396479,7.62207042 10.7002676,7.66960563 10.6561127,7.71549296 C10.3968873,7.98629577 10.1462394,8.25921127 9.90416901,8.53597183 C9.8566338,8.59039437 9.80647887,8.64392958 9.7593662,8.6988169 C9.48471831,9.01846479 9.22380282,9.34149296 8.97357746,9.66714085 C8.94915493,9.69883099 8.92130986,9.72967606 8.89688732,9.76140845 C8.875,9.75283099 8.85192958,9.74640845 8.83046479,9.73783099 C8.62223944,9.65514085 8.41185915,9.58056338 8.19894366,9.51198592 C8.12994366,9.49014085 8.06094366,9.4691831 7.99156338,9.44860563 C7.79791549,9.39080282 7.60164789,9.33891549 7.40453521,9.29269014 C7.35269014,9.28069014 7.30173239,9.26653521 7.24988732,9.25495775 C7.00608451,9.20226761 6.76101408,9.15853521 6.51378873,9.12342254 C6.45425352,9.11484507 6.39425352,9.10930986 6.33425352,9.10204225 C6.13887324,9.078 5.94307042,9.05919718 5.74680282,9.04673239 C5.70526761,9.04373239 5.66369014,9.03688732 5.62215493,9.03473239 C5.83287324,7.338 6.54328169,5.75226761 7.67267606,4.46556338 Z M23.3669437,0.487690141 C23.3669437,0.487690141 22.8339577,0.0741971831 22.3420845,0.52284507 C21.844169,0.97656338 22.281662,1.57301408 22.281662,1.57301408 C24.4316901,3.69008451 25.767662,6.63105634 25.767662,9.87925352 C25.767662,16.3105352 20.5351549,21.5429577 14.1039577,21.5429577 C10.8557606,21.5429577 7.91474648,20.2069859 5.79771831,18.0569577 C5.79771831,18.0569577 5.31569014,17.6151972 4.77497183,18.1242676 C4.23425352,18.6430563 4.71285915,19.1422817 4.71285915,19.1422817 C7.10757746,21.5703803 10.4324225,23.0785775 14.1039577,23.0785775 C14.178493,23.0785775 14.2521831,23.0777324 14.326338,23.0764225 C21.5017887,22.9577746 27.3032394,17.0830563 27.3032394,9.87925352 C27.3032394,6.20767606 25.7950423,2.88278873 23.3669437,0.487690141 Z M21.489831,28.4459155 L15.3105493,28.4459155 L15.3105493,24.6938873 C15.3105493,24.2701268 14.9669437,23.9260563 14.5427606,23.9260563 C14.1190423,23.9260563 13.7749718,24.2701268 13.7749718,24.6938873 L13.7749718,28.4459155 L7.5964507,28.4459155 C7.17226761,28.4459155 6.82866197,28.7895634 6.82866197,29.2137465 C6.82866197,29.6374648 7.17226761,29.9815352 7.5964507,29.9815352 L21.489831,29.9815352 C21.9140563,29.9815352 22.257662,29.6374648 22.257662,29.2137465 C22.257662,28.7895634 21.9140563,28.4459155 21.489831,28.4459155 Z" fill-rule="evenodd"/>
  </symbol>

  <symbol id="icon-star">
    <polygon points="30 10.8993853 23.0520058 18.3896797 24.2700582 28.5320285 15 24.2397282 5.73115497 28.5344549 6.94799418 18.3921061 0 10.9018117 10.0234552 8.92672274 15 0 19.9765448 8.92429634"></polygon>
  </symbol>

  <symbol id="icon-star-small" width="20" height="20" viewbox="0 0 20 20">
    <polygon points="9.91296 2 12.53824 6.70784 17.82592 7.74976 14.16064 11.70112 14.8032 17.05152 9.91296 14.7872 5.02336 17.0528 5.66528 11.7024 2 7.75104 7.28768 6.70912"></polygon>
  </symbol>

  <symbol id="icon-search" width="20" height="20" viewbox="0 0 20 20">
    <path d="M19.4497456,19.4497456 C18.716073,20.1834181 17.5268921,20.1834181 16.7931805,19.4497456 L13.4782553,16.1347814 C12.1154025,17.0090791 10.5044243,17.5299781 8.76500856,17.5299781 C3.92457415,17.5299781 0,13.6059508 0,8.7649695 C0,3.92398821 3.92457415,0 8.76500856,0 C13.606068,0 17.5300171,3.92391008 17.5300171,8.7649695 C17.5300171,10.5037993 17.0084541,12.1154025 16.1347814,13.4788804 L19.4497456,16.7938445 C20.1834181,17.5275171 20.1834181,18.716073 19.4497456,19.4497456 L19.4497456,19.4497456 Z M8.76500856,2.50426026 C5.30754425,2.50426026 2.50429932,5.30688018 2.50429932,8.76493043 C2.50429932,12.2229807 5.30758331,15.0256397 8.76500856,15.0256397 C12.2230197,15.0256397 15.0256787,12.2229807 15.0256787,8.76493043 C15.0256787,5.30688018 12.2230197,2.50426026 8.76500856,2.50426026 L8.76500856,2.50426026 Z" fill-rule="evenodd"/>
  </symbol>

  <symbol id="icon-pdf" width="20" height="20" viewbox="0 0 20 20">
    <path d="M1,6.0155902 L3.4864572,6.0155902 C4.01950429,6.0155902 4.45991159,6.07591246 4.80769231,6.1965588 C5.15547303,6.31720514 5.43174329,6.47697762 5.63651138,6.67588104 C5.84127946,6.87478446 5.98428995,7.10629153 6.06554713,7.37040919 C6.14680431,7.63452685 6.18743229,7.91005286 6.18743229,8.1969955 C6.18743229,8.50350241 6.14680431,8.79696208 6.06554713,9.07738329 C5.98428995,9.35780451 5.84127946,9.60398456 5.63651138,9.81593083 C5.43174329,10.0278771 5.15872327,10.1958012 4.81744312,10.3197083 C4.47616297,10.4436153 4.04550639,10.5055679 3.52546046,10.5055679 L2.43336945,10.5055679 L2.43336945,13 L1,13 L1,6.0155902 Z M3.47670639,9.2925892 C3.73022879,9.2925892 3.93986916,9.26650389 4.1056338,9.2143325 C4.27139845,9.16216111 4.4030331,9.09042653 4.50054171,8.9991266 C4.59805033,8.90782667 4.66468021,8.7953338 4.70043337,8.66164461 C4.73618653,8.52795543 4.75406284,8.38285593 4.75406284,8.22634176 C4.75406284,8.06330617 4.73456141,7.919837 4.69555796,7.79592995 C4.65655452,7.6720229 4.58829951,7.56768169 4.4907909,7.48290318 C4.39328229,7.39812468 4.26164763,7.33291142 4.09588299,7.28726145 C3.93011835,7.24161149 3.72047797,7.21878685 3.46695558,7.21878685 L2.43336945,7.21878685 L2.43336945,9.2925892 L3.47670639,9.2925892 Z M7,6.0155902 L9.60346696,6.0155902 C10.6695611,6.0155902 11.499997,6.3057892 12.0947996,6.8861959 C12.6896021,7.46660261 12.9869989,8.32741762 12.9869989,9.46866675 C12.9869989,10.0490735 12.9041178,10.5577369 12.7383532,10.9946723 C12.5725886,11.4316076 12.333696,11.8000625 12.0216685,12.100048 C11.7096409,12.4000335 11.329363,12.6250193 10.8808234,12.775012 C10.4322838,12.9250048 9.9252466,13 9.35969664,13 L7,13 L7,6.0155902 Z M9.39999962,11.757675 C10.0065024,11.757675 10.328276,11.7038741 10.5947996,11.5962706 C10.8613231,11.4886671 11.077464,11.3337856 11.2432286,11.1316215 C11.4089932,10.9294573 11.5308772,10.6897986 11.6088841,10.4126381 C11.686891,10.1354776 11.7258938,9.82408429 11.7258938,9.47844884 C11.7258938,9.13933481 11.6917663,8.83120217 11.6235103,8.55404166 C11.5552543,8.27688116 11.4463713,8.04374376 11.2968581,7.85462247 C11.1473449,7.66550119 10.9539557,7.51877136 10.7166847,7.41442858 C10.4794138,7.3100858 10.1885174,7.25791519 9.843987,7.25791519 L8.39999962,7.25791519 L8.39999962,11.757675 L9.39999962,11.757675 Z M13.971831,6.0155902 L19,6 L19,7.25210708 L15.4247021,7.26769728 L15.4247021,8.91108782 L18.8147346,8.89549762 L18.8147346,10.1476047 L15.4247021,10.1631949 L15.4247021,13 L13.971831,13 L13.971831,6.0155902 Z" fill-rule="evenodd"/>
  </symbol>

  <symbol id="icon-mail" width="20" height="20" viewbox="0 0 20 20">
    <path d="M18,8.360625 L18,15 L2,15 L2,8.360625 L10,12.975625 L18,8.36125 L18,8.360625 Z M2,6.15875 L2,5 L18,5 L18,6.15875 L10,10.775 L2,6.158125 L2,6.15875 Z" fill-rule="evenodd"/>
  </symbol>

  <symbol id="icon-close" width="20" height="20" viewbox="0 0 20 20">
    <path d="M12.0958929,10 L18.9520536,16.8561607 L20,17.9041071 L17.9041071,20 L16.8561607,18.9520536 L10,12.0958929 L3.14383935,18.9520536 L2.0958929,20 L8.8817842e-16,17.9041071 L1.04794645,16.8561607 L7.9041071,10 L1.04794645,3.14383935 L8.8817842e-16,2.0958929 L2.0958929,-8.8817842e-16 L3.14383935,1.04794645 L10,7.9041071 L16.8561607,1.04794645 L17.9041071,-8.8817842e-16 L20,2.0958929 L18.9520536,3.14383935 L12.0958929,10 Z" fill-rule="evenodd"/>
  </symbol>

  <symbol id="icon-arrow-left">
    <polygon points="19.1210157 35.0359494 16.9640506 37.1210157 0.413735395 20 16.9640506 2.87898429 19.1210157 4.96405058 4.59742821 19.9884514"></polygon>
  </symbol>

  <symbol id="icon-arrow-right">
    <polygon points="0.878984291 35.0359494 3.03594942 37.1210157 19.5862646 20 3.03594942 2.87898429 0.878984291 4.96405058 15.4025718 19.9884514"></polygon>
  </symbol>

  <symbol id="icon-play" width="30" height="30" viewbox="0 0 30 30">
    <polygon points="5 2 29 15 5 28"></polygon>
  </symbol>

  <symbol id="icon-pause" width="30" height="30" viewbox="0 0 30 30">
    <path d="M4,3 L12,3 L12,27 L4,27 L4,3 Z M18,3 L26,3 L26,27 L18,27 L18,3 Z"></path>
  </symbol>

  <symbol id="icon-quotes" width="30" height="30" viewbox="0 0 30 30">
    <path d="M28.3200293,5 C22.9979457,5.35480558 16.3749083,9.61247249 16.3749083,17.6547322 C16.3749083,22.5037417 18.9768158,25.5787234 22.7614087,25.5787234 C25.4815847,25.5787234 28.2017608,23.5681585 28.2017608,20.6114453 C28.2017608,17.2999266 25.8363903,15.6441673 23.4710198,15.6441673 C22.2883346,15.6441673 20.8691123,16.1172414 20.0412326,16.708584 C19.686427,17.0633896 19.4498899,16.9451211 19.4498899,16.2355099 C19.3316214,10.4403522 23.7075569,6.8922964 28.7931034,6.30095378 L28.3200293,5 Z M13.0633896,5 C7.74130594,5.35480558 1,9.61247249 1,17.6547322 C1,22.5037417 3.60190756,25.5787234 7.50476889,25.5787234 C10.224945,25.5787234 12.8268525,23.3316214 12.8268525,20.6114453 C12.8268525,17.2999266 10.461482,15.6441673 8.21438004,15.6441673 C6.91342627,15.6441673 5.61247249,16.1172414 4.66632428,16.8268525 C4.31151871,17.0633896 4.07498166,16.9451211 4.07498166,16.2355099 C3.83844461,10.5586207 8.45091709,6.8922964 13.5364637,6.30095378 L13.0633896,5 Z"></path>
  </symbol>

  <symbol id="icon-twitter" width="40" height="40" viewbox="0 0 40 40">
    <path d="M22.778,12.1886667 C21.032,12.824 19.9286667,14.4626667 20.054,16.256 L20.096,16.948 L19.3973333,16.8633333 C16.8553333,16.5386667 14.634,15.4373333 12.748,13.5866667 L11.826,12.6686667 L11.5886667,13.3466667 C11.086,14.858 11.4073333,16.454 12.4546667,17.5273333 C13.0133333,18.1206667 12.8873333,18.2053333 11.924,17.852 C11.5886667,17.7393333 11.2953333,17.6546667 11.2673333,17.6966667 C11.17,17.796 11.5046667,19.0806667 11.77,19.5893333 C12.1333333,20.296 12.8733333,20.9873333 13.684,21.3973333 L14.3686667,21.722 L13.5586667,21.736 C12.7766667,21.736 12.7486667,21.75 12.8326667,22.0473333 C13.112,22.9653333 14.2153333,23.94 15.4446667,24.364 L16.3106667,24.66 L15.5566667,25.112 C14.4393333,25.7626667 13.126,26.1293333 11.8126667,26.1566667 C11.1833333,26.1706667 10.6666667,26.2273333 10.6666667,26.27 C10.6666667,26.4106667 12.3713333,27.2013333 13.3626667,27.5126667 C16.338,28.4306667 19.8726667,28.0346667 22.5266667,26.4673333 C24.4126667,25.3513333 26.298,23.134 27.1786667,20.9866667 C27.654,19.8433333 28.1286667,17.7526667 28.1286667,16.7506667 C28.1286667,16.1006667 28.1706667,16.016 28.9526667,15.2393333 C29.414,14.7873333 29.8466667,14.2933333 29.9306667,14.152 C30.0706667,13.8833333 30.056,13.8833333 29.344,14.1233333 C28.1566667,14.5473333 27.9886667,14.4906667 28.576,13.8553333 C29.0086667,13.4033333 29.526,12.584 29.526,12.344 C29.526,12.302 29.3166667,12.372 29.0786667,12.4993333 C28.8273333,12.6406667 28.2686667,12.8526667 27.8493333,12.9793333 L27.0953333,13.22 L26.4106667,12.7533333 C26.0333333,12.4993333 25.5033333,12.2166667 25.2233333,12.132 C24.5106667,11.9346667 23.4206667,11.9626667 22.778,12.1886667 L22.778,12.1886667 Z M20,40 C8.95466667,40 0,31.0453333 0,20 C0,8.954 8.95466667,0 20,0 C31.0453333,0 40,8.954 40,20 C40,31.0453333 31.0453333,40 20,40 L20,40 Z"></path>
  </symbol>

  <symbol id="icon-email" width="40" height="40" viewbox="0 0 40 40">
    <path d="M20,40 C31.045695,40 40,31.045695 40,20 C40,8.954305 31.045695,0 20,0 C8.954305,0 0,8.954305 0,20 C0,31.045695 8.954305,40 20,40 Z M29.6,17.9016 L29.6,26.4 L10.4,26.4 L10.4,17.9016 L20,23.8088 L29.6,17.9024 L29.6,17.9016 Z M10.4,15.0832 L10.4,13.6 L29.6,13.6 L29.6,15.0832 L20,20.992 L10.4,15.0824 L10.4,15.0832 Z"></path>
  </symbol>

  <symbol id="icon-final" width="80" height="80" viewbox="0 0 80 80">
    <path d="M40,0 C18,0 0,18 0,40 C0,62 18,80 40,80 C62,80 80,62 80,40 C80,18 62,0 40,0 L40,0 L40,0 Z M32,60 L12,40 L17.6,34.4 L32,48.8 L62.4,18.4 L68,24 L32,60 L32,60 L32,60 Z"></path>
  </symbol>

  <symbol id="icon-arrow-toggle" width="20" height="20" viewbox="0 0 20 20">
    <polygon points="5.29455413 18.2912362 6.70544587 19.7087638 16.4463344 10.0134753 6.70642896 0.292216048 5.29357104 1.70778395 13.6132624 10.011548"></polygon>
  </symbol>

  <symbol id="icon-edit" width="20" height="20" viewbox="0 0 20 20">
    <path d="M16.3389087,6.32224528 L9.66109128,13 L7,13 L7,10.3389087 L13.6777547,3.66109128 L16.3389087,6.32224528 Z M19,3.66109128 L17.6694544,4.99163692 L15.0083631,2.33054564 L16.3389087,1 L19,3.66109128 Z M19,10 L19,16.0059397 C19,17.6590472 17.6582378,19 16.0059397,19 L3.99406028,19 C2.34095278,19 1,17.6582378 1,16.0059397 L1,3.99406028 C1,2.34095278 2.34176222,1 3.99406028,1 L10,1 L10,3 L3.99406028,3 C3.44606163,3 3,3.44579254 3,3.99406028 L3,16.0059397 C3,16.5539384 3.44579254,17 3.99406028,17 L16.0059397,17 C16.5539384,17 17,16.5542075 17,16.0059397 L17,10 L19,10 Z"></path>
  </symbol>

  <symbol id="icon-new" width="20" height="20" viewbox="0 0 20 20">
    <path d="M3.99406028,3 L16.0059397,3 C16.5542075,3 17,3.44606163 17,3.99406028 L17,16.0059397 C17,16.5542075 16.5539384,17 16.0059397,17 L3.99406028,17 C3.44579254,17 3,16.5539384 3,16.0059397 L3,3.99406028 C3,3.44579254 3.44606163,3 3.99406028,3 Z M1,16.0059397 C1,17.6582378 2.34095278,19 3.99406028,19 L16.0059397,19 C17.6582378,19 19,17.6590472 19,16.0059397 L19,3.99406028 C19,2.34176222 17.6590472,1 16.0059397,1 L3.99406028,1 C2.34176222,1 1,2.34095278 1,3.99406028 L1,16.0059397 Z M11,9 L11,6 L9,6 L9,9 L6,9 L6,11 L9,11 L9,14 L11,14 L11,11 L14,11 L14,9 L11,9 L11,9 Z"></path>
  </symbol>

  <symbol id="icon-menu" width="20" height="20" viewbox="0 0 20 20">
    <path d="M0,0 L20,0 L20,3 L0,3 L0,0 Z M0,8 L20,8 L20,11 L0,11 L0,8 Z M0,16 L20,16 L20,19 L0,19 L0,16 Z"></path>
  </symbol>

  <symbol id="icon-warning" width="30" height="30" viewbox="0 0 30 30">
    <path d="M15.0000469,4 L3,24.7084375 L27,24.7084375 L15.0000469,4 L15.0000469,4 Z M16.2106406,22.1896563 L13.674375,22.1896563 L13.674375,19.7382344 L16.2106406,19.7382344 L16.2106406,22.1896563 L16.2106406,22.1896563 Z M15.5827969,18.7287812 L14.3189062,18.7287812 L13.6149375,12.8980938 L13.6149375,9.72873438 L16.2699375,9.72873438 L16.2699375,12.8980938 L15.5827969,18.7287812 L15.5827969,18.7287812 Z"></path>
  </symbol>

  <symbol id="icon-recommendation" width="20" height="20" viewbox="0 0 20 20">
    <path d="M14,10 C14,7.790861 12.209139,6 10,6 C7.790861,6 6,7.790861 6,10 C6,12.209139 7.790861,14 10,14 C12.209139,14 14,12.209139 14,10 Z M3,10 C3,6.13400675 6.13400675,3 10,3 C13.8659932,3 17,6.13400675 17,10 C17,13.8659932 13.8659932,17 10,17 C6.13400675,17 3,13.8659932 3,10 Z"></path>
  </symbol>

  <symbol id="icon-settings" width="20" height="20" viewbox="0 0 20 20">
    <path d="M10,10 C11.6568542,10 13,8.65685425 13,7 C13,5.34314575 11.6568542,4 10,4 C8.34314575,4 7,5.34314575 7,7 C7,8.65685425 8.34314575,10 10,10 Z M15,16 C15,12.25 12.5,11 10,11 C7.5,11 5,12.25 5,16 L15,16 Z"></path>
  </symbol>

  <symbol id="icon-work" width="20" height="20" viewbox="0 0 20 20">
    <path d="M3,7 L3,15 L17,15 L17,7 L14,7 L14,4.99810135 C14,3.88670635 13.1047419,3 12.000385,3 L7.99961498,3 C6.88743329,3 6,3.89458045 6,4.99810135 L6,7 L3,7 Z M8,5 L12,5 L12,7 L8,7 L8,5 Z"/>
  </symbol>

  <symbol id="icon-followers" width="20" height="20" viewbox="0 0 20 20">
    <path d="M10,10 C11.6568542,10 13,8.65685425 13,7 C13,5.34314575 11.6568542,4 10,4 C8.34314575,4 7,5.34314575 7,7 C7,8.65685425 8.34314575,10 10,10 Z M15,16 C15,12.25 12.5,11 10,11 C7.5,11 5,12.25 5,16 L15,16 Z"/>
  </symbol>

  <symbol id="icon-public" width="20" height="20" viewbox="0 0 20 20">
    <path d="M8.41756524,14.1068639 C8.90862541,14.2962007 9.4421909,14.4 10,14.4 C12.4300529,14.4 14.4,12.4300529 14.4,10 C14.4,9.79010063 14.3853024,9.58363406 14.3568803,9.38157331 L14.2666667,9.23428571 L13.7066667,9.96571429 L13.8,10.1485714 L13.1466667,11.1542857 L13.1466667,11.8857143 L12.4,12.8 L11.6533333,12.8 L11.56,11.7942857 L11,10.6057143 L10.16,10.6971429 L9.6,10.1485714 L9.6,9.41714286 L10.3466667,8.41142857 L10.0666667,8.22857143 L10.2533333,7.77142857 L10.72,7.77142857 L10.16,7.22285714 L10.5333333,6.94857143 L10.9066667,7.31428571 L11.1866667,7.13142857 L11,6.76571429 L11.7466667,6.4 L12.5866667,6.67428571 L12.9048025,6.69506193 C12.3527025,6.20942378 11.6779225,5.85994271 10.9329488,5.69910523 L10.9276596,5.70212766 L9.54893617,6.16170213 L9.0893617,6.77446809 L8.62978723,6.6212766 L8.88052957,5.74367842 C8.56642057,5.82606903 8.26602029,5.94230943 7.98346254,6.08826581 L8.32340426,6.31489362 L7.7106383,6.77446809 L7.86382979,7.84680851 L6.61015006,8.53063382 L7.68695652,9.2 L8.03478261,10.4337286 L8.8,10.5971014 L9.6,11.2505929 L8.41756524,14.1068639 L8.41756524,14.1068639 Z M7.54944996,13.6549706 C6.3736903,12.8650994 5.6,11.5229022 5.6,10 C5.6,9.88992119 5.60404232,9.78078651 5.61198661,9.67273631 L6.10572073,8.88276172 L5.77391304,10.5971014 L6.12173913,10.4337286 L6.12173913,10.9238472 L6.64347826,11.4139657 L6.8173913,12.3942029 L7.54944996,13.6549706 L7.54944996,13.6549706 Z M4,10 C4,6.6862915 6.6862915,4 10,4 C13.3137085,4 16,6.6862915 16,10 C16,13.3137085 13.3137085,16 10,16 C6.6862915,16 4,13.3137085 4,10 L4,10 Z"/>
  </symbol>

  <symbol id="icon-private" width="20" height="20" viewbox="0 0 20 20">
    <path d="M15,15 L5,15 L5,9 L7,9 L7,8 C7,6.3431 8.3431,5 10,5 C11.6569,5 13,6.3431 13,8 L13,9 L15,9 L15,15 Z M11,8 C11,7.4477 10.5523,7 10,7 C9.4477,7 9,7.4477 9,8 L9,9 L11,9 L11,8 L11,8 Z"/>
  </symbol>

  <symbol id="icon-visible" width="20" height="20" viewbox="0 0 20 20">
    <path d="M10,16 C5.5,16 1,10 1,10 C1,10 5.5,4 10,4 C14.5,4 19,10 19,10 C19,10 14.5,16 10,16 Z M14.8587723,8.49481864 C13.0817502,6.91524345 11.3656688,6 10,6 C8.63433123,6 6.91824977,6.91524345 5.14122768,8.49481864 C4.6022316,8.97392626 3.61828891,10 3.61828891,10 C3.61828891,10 4.6022316,11.0260737 5.14122768,11.5051814 C6.91824977,13.0847566 8.63433123,14 10,14 C11.3656688,14 13.0817502,13.0847566 14.8587723,11.5051814 C15.3977684,11.0260737 16.3817111,10 16.3817111,10 C16.3817111,10 15.3977684,8.97392626 14.8587723,8.49481864 Z M10,12.5 C11.3807119,12.5 12.5,11.3807119 12.5,10 C12.5,8.61928813 11.3807119,7.5 10,7.5 C8.61928813,7.5 7.5,8.61928813 7.5,10 C7.5,11.3807119 8.61928813,12.5 10,12.5 Z"/>
  </symbol>

  <symbol id="icon-invisible" width="20" height="20" viewbox="0 0 20 20">
    <path d="M13.5266,5.02888088 L16.0756,2.48000002 L17.4898,3.89413392 L15.2196,6.1643278 C17.4311,7.87764772 19,9.96944994 19,9.96944994 C19,9.96944994 14.5,15.9691695 10,15.9691695 C8.7957,15.9691695 7.5914,15.5394896 6.4734,14.910019 L3.9333,17.4500003 L2.5191,16.0358664 L4.7804,13.7746721 C2.5689,12.0612522 1,9.96944994 1,9.96944994 C1,9.96944994 5.5,3.96973039 10,3.96973039 C11.2043,3.96973039 12.4086,4.3994103 13.5266,5.02888088 Z M13.7926,7.59116111 L12.3278,9.05589265 C12.439,9.33887942 12.5,9.64706501 12.5,9.96944994 C12.5,11.3500854 11.3807,12.4693331 10,12.4693331 C9.6776,12.4693331 9.3694,12.4083359 9.0864,12.2971411 L7.9546,13.4288882 C8.6904,13.7813718 9.3812,13.969263 10,13.969263 C11.3657,13.969263 13.0817,13.0541058 14.8588,11.4745796 C15.3978,10.995502 16.3817,9.96944994 16.3817,9.96944994 C16.3817,9.96944994 15.3978,8.9433979 14.8588,8.4643203 C14.5001,8.1455352 14.1439,7.85384883 13.7926,7.59116111 Z M12.0454,6.51001165 C11.3096,6.15752812 10.6188,5.96963691 10,5.96963691 C8.6343,5.96963691 6.9183,6.88489412 5.1412,8.4643203 C4.6022,8.9433979 3.6183,9.96944994 3.6183,9.96944994 C3.6183,9.96944994 4.6022,10.995502 5.1412,11.4745796 C5.4999,11.7933647 5.8561,12.0851511 6.2074,12.3477388 L7.6722,10.8830072 C7.561,10.6000205 7.5,10.2919349 7.5,9.96944994 C7.5,8.58881448 8.6193,7.4695668 10,7.4695668 C10.3224,7.4695668 10.6306,7.53066394 10.9136,7.64175875 L12.0454,6.51001165 Z"/>
  </symbol>

  <symbol id="icon-small-close" width="14" height="14" viewbox="0 0 14 14">
    <polygon points="7 8.41421356 2.70710678 12.7071068 1.29289322 11.2928932 5.58578644 7 1.29289322 2.70710678 2.70710678 1.29289322 7 5.58578644 11.2928932 1.29289322 12.7071068 2.70710678 8.41421356 7 12.7071068 11.2928932 11.2928932 12.7071068"></polygon>
  </symbol>

  <symbol id="icon-arrow-small-left" width="20" height="20" viewbox="0 0 20 20">
    <polygon points="8.41421356 10 13.7071068 4.70710678 12.2928932 3.29289322 5.58578644 10 12.2928932 16.7071068 13.7071068 15.2928932"></polygon>
  </symbol>

  <symbol id="icon-arrow-small-right" width="20" height="20" viewbox="0 0 20 20">
    <polygon points="6.29289322 15.2928932 7.70710678 16.7071068 14.4142136 10 7.70710678 3.29289322 6.29289322 4.70710678 11.5857864 10"></polygon>
  </symbol>
</svg>

