<?xml version="1.0" encoding="UTF-8" standalone="no"?>
<svg width="50px" height="51px" viewBox="0 0 50 51" version="1.1" xmlns="http://www.w3.org/2000/svg" xmlns:xlink="http://www.w3.org/1999/xlink">
    <!-- Generator: Sketch 3.8.3 (29802) - http://www.bohemiancoding.com/sketch -->
    <title>1466399188_38-instagram</title>
    <desc>Created with Sketch.</desc>
    <defs></defs>
    <g id="Page-1" stroke="none" stroke-width="1" fill="none" fill-rule="evenodd">
        <g id="theapolis-desktop-1-home" transform="translate(-446.000000, -4044.000000)" fill="#1F1F1F">
            <g id="Group-12" transform="translate(-155.000000, 3930.000000)">
                <g id="Group-7" transform="translate(601.000000, 114.000000)">
                    <g id="1466399188_38-instagram">
                        <g id="Group">
                            <path d="M25.2,12.7 C18.2,12.7 12.4,18.4 12.4,25.5 C12.4,32.6 18.1,38.3 25.2,38.3 C32.3,38.3 38,32.5 38,25.5 C38,18.5 32.2,12.7 25.2,12.7 L25.2,12.7 Z M25.2,33.7 C20.7,33.7 17,30 17,25.5 C17,21 20.7,17.3 25.2,17.3 C29.7,17.3 33.4,21 33.4,25.5 C33.4,30 29.7,33.7 25.2,33.7 L25.2,33.7 Z" id="Shape"></path>
                            <circle id="Oval" cx="38.5" cy="12.4" r="2.9"></circle>
                            <path d="M46,4.9 C43.4,2.2 39.7,0.8 35.5,0.8 L14.9,0.8 C6.2,0.8 0.4,6.6 0.4,15.3 L0.4,35.8 C0.4,40.1 1.8,43.8 4.6,46.5 C7.3,49.1 10.9,50.4 15,50.4 L35.4,50.4 C39.7,50.4 43.3,49 45.9,46.5 C48.6,43.9 50,40.2 50,35.9 L50,15.3 C50,11.1 48.6,7.5 46,4.9 L46,4.9 Z M45.4,35.9 C45.4,39 44.5,41.5 42.7,43.2 C40.9,44.9 38.4,45.8 35.4,45.8 L15,45.8 C12,45.8 9.5,44.9 7.7,43.2 C5.9,41.4 5,38.9 5,35.8 L5,15.3 C5,12.3 5.9,9.8 7.7,8 C9.4,6.3 12,5.4 15,5.4 L35.6,5.4 C38.6,5.4 41.1,6.3 42.9,8.1 C44.6,9.9 45.6,12.4 45.6,15.3 L45.6,35.9 L45.4,35.9 Z" id="Shape"></path>
                        </g>
                    </g>
                </g>
            </g>
        </g>
    </g>
</svg>