<?xml version="1.0" encoding="UTF-8" standalone="no"?>
<svg width="40px" height="40px" viewBox="0 0 40 40" version="1.1" xmlns="http://www.w3.org/2000/svg" xmlns:xlink="http://www.w3.org/1999/xlink">
    <!-- Generator: Sketch 3.8.3 (29802) - http://www.bohemiancoding.com/sketch -->
    <title>Shape Copy 2</title>
    <desc>Created with Sketch.</desc>
    <defs></defs>
    <g id="Page-1" stroke="none" stroke-width="1" fill="none" fill-rule="evenodd">
        <g id="theapolis-desktop-1-home" transform="translate(-640.000000, -5224.000000)" fill="#FFFFFF">
            <g id="Group-12" transform="translate(-155.000000, 3930.000000)">
                <g id="Group-11" transform="translate(155.000000, 1189.000000)">
                    <path d="M657.176667,135.88 L661.672667,135.88 L661.672667,124.998667 L664.672,124.998667 L665.069333,121.249333 L661.672667,121.249333 L661.677333,119.372 C661.677333,118.394667 661.770667,117.87 663.173333,117.87 L665.048,117.87 L665.048,114.12 L662.048,114.12 C658.444667,114.12 657.176667,115.939333 657.176667,118.998 L657.176667,121.249333 L654.930667,121.249333 L654.930667,124.999333 L657.176667,124.999333 L657.176667,135.88 L657.176667,135.88 Z M660,145 C648.954667,145 640,136.045333 640,125 C640,113.954 648.954667,105 660,105 C671.045333,105 680,113.954 680,125 C680,136.045333 671.045333,145 660,145 L660,145 Z" id="Shape-Copy-2"></path>
                </g>
            </g>
        </g>
    </g>
</svg>