<?xml version="1.0" encoding="UTF-8" standalone="no"?>
<svg width="160px" height="65px" viewBox="0 0 160 65" version="1.1" xmlns="http://www.w3.org/2000/svg" xmlns:xlink="http://www.w3.org/1999/xlink">
    <!-- Generator: sketchtool 39 (31667) - http://www.bohemiancoding.com/sketch -->
    <title>712DF711-F106-44E8-9151-B4F478E1C0AA</title>
    <desc>Created with sketchtool.</desc>
    <defs>
        <polygon id="path-1" points="0 64.1143925 159.700187 64.1143925 159.700187 0 0 0"></polygon>
    </defs>
    <g id="Page-1" stroke="none" stroke-width="1" fill="none" fill-rule="evenodd">
        <g id="theapolis-desktop-6b-profile-clean" transform="translate(-165.000000, -26.000000)">
            <g id="Page-1" transform="translate(165.000000, 26.000000)">
                <path d="M110.28172,37.2887103 C111.828262,37.2887103 112.980037,36.7623551 113.737421,35.7088972 C114.494056,34.6558131 114.872748,33.1503925 114.872748,31.1918879 C114.872748,29.2502056 114.494056,27.7481495 113.737421,26.6868411 C112.980037,25.6251589 111.828262,25.0943178 110.28172,25.0943178 C108.734056,25.0943178 107.58228,25.6251589 106.825645,26.6868411 C106.068262,27.7481495 105.689944,29.2502056 105.689944,31.1918879 C105.689944,33.1503925 106.068262,34.6558131 106.825645,35.7088972 C107.58228,36.7623551 108.734056,37.2887103 110.28172,37.2887103 L110.28172,37.2887103 Z M110.306393,40.4483364 C108.989383,40.4483364 107.812935,40.2345047 106.776299,39.8064673 C105.73929,39.3788037 104.858916,38.7619813 104.135178,37.9552523 C103.410318,37.1488972 102.855551,36.1780561 102.468636,35.0423551 C102.082093,33.907028 101.888449,32.6232897 101.888449,31.1918879 C101.888449,29.7601121 102.082093,28.4763738 102.468636,27.3406729 C102.855551,26.2053458 103.415178,25.2345047 104.14714,24.4281495 C104.879477,23.6217944 105.764336,23.004972 106.800972,22.5765607 C107.837607,22.1488972 109.006206,21.9350654 110.306393,21.9350654 C111.622654,21.9350654 112.799103,22.1488972 113.836486,22.5765607 C114.872748,23.004972 115.749009,23.6217944 116.464897,24.4281495 C117.180785,25.2345047 117.727701,26.2053458 118.106766,27.3406729 C118.485084,28.4763738 118.674243,29.7601121 118.674243,31.1918879 C118.674243,32.6232897 118.489196,33.907028 118.118729,35.0423551 C117.749009,36.1780561 117.205458,37.1488972 116.48957,37.9552523 C115.773682,38.7619813 114.897421,39.3788037 113.860785,39.8064673 C112.823776,40.2345047 111.639103,40.4483364 110.306393,40.4483364 L110.306393,40.4483364 Z" id="Fill-1" fill="#1F1F1F"></path>
                <polygon id="Fill-3" fill="#1F1F1F" points="122.697944 22.3791028 126.375701 22.3791028 126.375701 36.8441495 134.718879 36.8441495 134.324486 40.0041495 122.697944 40.0041495"></polygon>
                <mask id="mask-2" fill="white">
                    <use xlink:href="#path-1"></use>
                </mask>
                <g id="Clip-6"></g>
                <polygon id="Fill-5" fill="#000000" mask="url(#mask-2)" points="138.101308 40.0041121 141.779065 40.0041121 141.779065 22.3790654 138.101308 22.3790654"></polygon>
                <path d="M148.987178,34.2526355 C149.069047,35.3386168 149.418953,36.1285234 150.03615,36.6223551 C150.652972,37.1161869 151.562505,37.3629159 152.764,37.3629159 C153.339327,37.3629159 153.825308,37.3008598 154.220449,37.1774953 C154.614841,37.0541308 154.935963,36.8900187 155.183065,36.6840374 C155.429794,36.4784299 155.606243,36.2358131 155.713159,35.9558131 C155.820075,35.6761869 155.87428,35.3718879 155.87428,35.0425421 C155.87428,34.5819813 155.701196,34.1498318 155.355402,33.7464673 C155.009981,33.3434766 154.376336,33.051514 153.454841,32.8702056 L151.159514,32.4503925 C150.25372,32.2862804 149.456336,32.0720748 148.765121,31.8088972 C148.073907,31.5457196 147.49372,31.2040374 147.024561,30.7842243 C146.555776,30.364785 146.197645,29.8507664 145.950916,29.2414206 C145.704187,28.6328224 145.580449,27.9087103 145.580449,27.0694579 C145.580449,26.2302056 145.749047,25.4896449 146.086617,24.8477757 C146.423439,24.2059065 146.892598,23.6713271 147.49372,23.2432897 C148.094093,22.8152523 148.814093,22.4900187 149.653346,22.2683364 C150.492598,22.0459065 151.414093,21.9348785 152.418206,21.9348785 C153.70157,21.9348785 154.771103,22.0829159 155.627178,22.3789907 C156.482505,22.6754393 157.17372,23.0664673 157.700449,23.5517009 C158.227178,24.0373084 158.618206,24.6006729 158.873159,25.2425421 C159.128112,25.8844112 159.29671,26.5509533 159.378953,27.2417944 L155.898953,27.6862804 C155.717645,26.7154393 155.368112,26.0163738 154.849607,25.5883364 C154.331477,25.1602991 153.545308,24.9464673 152.49185,24.9464673 C151.866804,24.9464673 151.352785,24.9999252 150.949047,25.1068411 C150.546056,25.2141308 150.221196,25.3539439 149.974467,25.5266542 C149.727738,25.6989907 149.554654,25.9008598 149.456336,26.1311402 C149.357271,26.3617944 149.307925,26.6002991 149.307925,26.847028 C149.307925,27.5057196 149.492972,27.9991776 149.863439,28.3281495 C150.233533,28.6574953 150.863439,28.9124486 151.751664,29.0933832 L154.170355,29.5625421 C156.079514,29.9412336 157.478393,30.5543178 158.366991,31.4014206 C159.255963,32.249271 159.700075,33.4709533 159.700075,35.0668411 C159.700075,35.8406729 159.555776,36.5524486 159.267925,37.2021682 C158.980075,37.8526355 158.552037,38.420486 157.984561,38.9057196 C157.417084,39.3913271 156.704935,39.7696449 155.849607,40.0410467 C154.993159,40.3128224 153.989794,40.4485234 152.838019,40.4485234 C150.435028,40.4485234 148.595776,39.9345047 147.320636,38.9057196 C146.045121,37.8773084 145.358019,36.3259065 145.259701,34.2526355 L148.987178,34.2526355 Z" id="Fill-7" fill="#000000" mask="url(#mask-2)"></path>
                <path d="M99.0376449,25.7979813 C98.8316636,25.1318131 98.4701682,24.547514 97.9516636,24.0454579 C97.4331589,23.5434019 96.7333458,23.1404112 95.8537196,22.8357383 C94.9725981,22.5314393 93.8578318,22.3792897 92.5086729,22.3792897 L89.0354019,22.3792897 L89.0354019,25.4155514 L92.4593271,25.4155514 C93.1011963,25.4155514 93.6316636,25.4734953 94.0514766,25.5882617 C94.4712897,25.7037757 94.8043738,25.8682617 95.0511028,26.0820935 C95.2982056,26.2959252 95.4709159,26.5594766 95.5696075,26.8716262 C95.6679252,27.1845234 95.7176449,27.5467664 95.7176449,27.9579813 C95.7176449,28.3531215 95.6724112,28.7191028 95.5819439,29.0562991 C95.4914766,29.3938692 95.3225047,29.6776075 95.0757757,29.9078879 C94.8290467,30.1385421 94.4955888,30.3198505 94.0761495,30.4510654 C93.6563364,30.583028 93.1258692,30.6484486 92.484,30.6484486 L89.0354019,30.6484486 L89.0354019,33.7093832 L92.6077383,33.7093832 C93.9236262,33.7093832 95.0140935,33.5531215 95.8780187,33.2405981 C96.7419439,32.9280748 97.4331589,32.5041495 97.9516636,31.9691963 C98.4701682,31.4346168 98.8316636,30.8133084 99.0376449,30.1056449 C99.2428785,29.3979813 99.3464299,28.6577944 99.3464299,27.8839626 C99.3464299,27.1598505 99.2428785,26.4645234 99.0376449,25.7979813" id="Fill-8" fill="#1F1F1F" mask="url(#mask-2)"></path>
                <polygon id="Fill-9" fill="#CE1F35" mask="url(#mask-2)" points="85.3229159 25.4154019 85.3229159 22.3791402 85.3229159 7.77502804 -7.47663532e-05 7.47663553e-05 -7.47663532e-05 63.7705421 60.3352523 57.9200748 69.2242243 64.1144673 69.2242243 57.068486 85.3229159 55.5282991 85.3229159 33.7096075 85.3229159 30.6486729"></polygon>
                <polygon id="Fill-10" fill="#FEFEFE" mask="url(#mask-2)" points="13.3110654 25.5634393 8.0037757 25.5634393 8.0037757 22.3791402 22.320785 22.3791402 22.320785 25.5634393 17.0138692 25.5634393 17.0138692 40.0041869 13.3110654 40.0041869"></polygon>
                <polygon id="Fill-11" fill="#FEFEFE" mask="url(#mask-2)" points="26.8875514 22.3791028 30.5656822 22.3791028 30.5656822 29.1921869 37.5514766 29.1921869 37.5514766 22.3791028 41.2292336 22.3791028 41.2292336 40.0041495 37.5514766 40.0041495 37.5514766 32.5989159 30.5656822 32.5989159 30.5656822 40.0041495 26.8875514 40.0041495"></polygon>
                <polygon id="Fill-12" fill="#FEFEFE" mask="url(#mask-2)" points="47.1821308 22.3791028 59.2030654 22.3791028 59.2030654 25.5140561 50.8598879 25.5140561 50.8598879 29.3648972 58.7096075 29.3648972 58.7096075 32.5245234 50.8598879 32.5245234 50.8598879 36.8691963 59.7215701 36.8691963 59.3514766 40.0041495 47.1821308 40.0041495"></polygon>
                <path d="M72.8497944,32.8948411 L70.7021308,26.5755888 L68.579514,32.8948411 L72.8497944,32.8948411 Z M69.3447477,22.3789533 L72.8501682,22.3789533 L79.4654953,40.004 L75.5159626,40.004 L74.1088598,35.9311028 L67.9376449,35.9311028 L66.5305421,40.004 L62.7294206,40.004 L69.3447477,22.3789533 Z" id="Fill-13" fill="#FEFEFE" mask="url(#mask-2)"></path>
            </g>
        </g>
    </g>
</svg>