<?xml version="1.0" encoding="UTF-8" standalone="no"?>
<svg width="24px" height="30px" viewBox="0 0 24 30" version="1.1" xmlns="http://www.w3.org/2000/svg" xmlns:xlink="http://www.w3.org/1999/xlink">
    <!-- Generator: Sketch 3.8.3 (29802) - http://www.bohemiancoding.com/sketch -->
    <title>1467049991_globe</title>
    <desc>Created with Sketch.</desc>
    <defs></defs>
    <g id="Page-1" stroke="none" stroke-width="1" fill="none" fill-rule="evenodd">
        <g id="theapolis-desktop-1-home" transform="translate(-1149.000000, -5162.000000)" fill="#CD2036">
            <g id="Group-12" transform="translate(-155.000000, 3930.000000)">
                <g id="Group-11" transform="translate(155.000000, 1189.000000)">
                    <g id="Group-8">
                        <g id="Group-2" transform="translate(1149.000000, 43.000000)">
                            <g id="1467049991_globe">
                                <g id="Layer_1">
                                    <g id="Group">
                                        <path d="M2.97130986,17.2278592 C3.01115493,17.267662 3.05657746,17.3088169 3.10626761,17.3499296 C4.99322535,19.1713521 7.46721127,20.1786761 10.1005352,20.1786761 L10.1009577,20.1786761 C10.202493,20.1786761 10.3036056,20.1765211 10.4051831,20.1736056 L10.4055634,20.1736056 C10.4137183,20.1736056 10.4218732,20.1736056 10.4304507,20.1730986 C12.9990423,20.0886761 15.4134507,19.0428169 17.2284085,17.2278592 C19.0442958,15.4119718 20.0905775,12.9976056 20.1746197,10.4285493 L20.1746197,10.4285493 L20.1746197,10.4285493 C20.2646197,7.64995775 19.1912535,4.93132394 17.2292958,2.96983099 C15.249,0.989408451 12.5783662,-0.0684507042 9.77061972,0.024084507 L9.77061972,0.024084507 L9.77061972,0.024084507 C7.20067606,0.108084507 4.78584507,1.1543662 2.97130986,2.9693662 C1.15592958,4.78478873 0.109605634,7.19915493 0.026028169,9.76867606 C0.026028169,9.76867606 0.026028169,9.76867606 0.026028169,9.76909859 C-0.0648169014,12.5455352 1.00808451,15.2637042 2.96961972,17.2257042 C2.97004225,17.226507 2.97088732,17.2273944 2.97130986,17.2278592 L2.97130986,17.2278592 Z M2.55016901,14.0464648 C2.54632394,14.0601972 2.53985915,14.0751972 2.53601408,14.0888873 C1.96487324,13.010831 1.63449296,11.8184366 1.56853521,10.5741549 C1.61395775,10.5767324 1.65895775,10.5788451 1.70438028,10.5822676 C1.8101831,10.5895775 1.91602817,10.5998451 2.02140845,10.6114225 C2.10878873,10.6208451 2.19578873,10.6302676 2.28232394,10.6422676 C2.38985915,10.6572676 2.4965493,10.6761127 2.60323944,10.6949577 C2.6838169,10.7095352 2.76435211,10.7219577 2.84404225,10.7382254 C3.02269014,10.7755352 3.20007042,10.817493 3.37533803,10.865493 C3.42933803,10.8804507 3.48202817,10.8989155 3.53560563,10.9147606 C3.66667606,10.953338 3.79740845,10.9936056 3.9263662,11.0386056 C3.94609859,11.0454507 3.96578873,11.0536056 3.98552113,11.0604507 C3.96278873,11.0956056 3.94478873,11.1294507 3.92294366,11.1641408 C3.79267606,11.3702535 3.66929577,11.5737465 3.55491549,11.7738592 C3.53049296,11.8167465 3.50391549,11.8599718 3.47995775,11.9023944 C3.34969014,12.1350423 3.23184507,12.363 3.12346479,12.5866479 C3.09688732,12.6410704 3.07330986,12.6941831 3.04846479,12.7481831 C2.96319718,12.9315634 2.88523944,13.1115211 2.81450704,13.2884789 C2.79523944,13.3364366 2.77423944,13.3857042 2.75623944,13.4332817 C2.67650704,13.6432817 2.60797183,13.847662 2.55016901,14.0464648 L2.55016901,14.0464648 Z M6.29835211,10.4589296 C6.51515493,10.1825493 6.74391549,9.90874648 6.97960563,9.63667606 C7.05029577,9.55483099 7.12398592,9.47429577 7.19640845,9.39333803 C7.3703662,9.19753521 7.54905634,9.00342254 7.73285915,8.81104225 C7.77912676,8.76219718 7.82623944,8.71377465 7.87297183,8.66492958 L11.5337746,12.3257324 C11.484507,12.3736901 11.4348169,12.4212676 11.3851268,12.4688451 C11.1949014,12.6500704 11.0029437,12.8261831 10.8101408,12.9984507 C10.7266056,13.0730282 10.6430282,13.1488732 10.5590704,13.2216761 C10.2882676,13.4556338 10.0161972,13.6835915 9.74150704,13.8982394 C9.7398169,13.899507 9.73808451,13.9008169 9.7368169,13.9020845 C9.6155493,13.7003239 9.48532394,13.5044789 9.35078873,13.3120986 C9.31394366,13.259831 9.27494366,13.2092958 9.23725352,13.1574507 C9.12194366,12.9997606 9.00202817,12.845493 8.87776056,12.6942676 C8.83233803,12.639 8.78738028,12.5837324 8.74064789,12.5293099 C8.57611268,12.3381972 8.40642254,12.1505493 8.22735211,11.9710141 C8.04823944,11.7919014 7.86059155,11.6226338 7.66947887,11.4581408 C7.6146338,11.4110282 7.55890141,11.3660282 7.50405634,11.3201408 C7.35325352,11.196338 7.19898592,11.0768028 7.04176056,10.9619577 C6.98991549,10.9238451 6.93891549,10.8848451 6.88622535,10.848 C6.69384507,10.7130423 6.498,10.5827746 6.29666197,10.4615493 C6.29750704,10.460662 6.29750704,10.4597746 6.29835211,10.4589296 L6.29835211,10.4589296 Z M9.52639437,7.11304225 C9.6018169,7.04919718 9.67635211,6.98150704 9.75219718,6.91850704 C9.99515493,6.7175493 10.238493,6.52390141 10.4831831,6.33878873 C10.4849155,6.33747887 10.4861408,6.3366338 10.4878732,6.3353662 C10.6078732,6.53243662 10.7364085,6.72397183 10.8692113,6.91250704 C10.9060986,6.96477465 10.9454789,7.01535211 10.9832113,7.06677465 C11.0954366,7.21973239 11.2120141,7.36926761 11.3328592,7.51538028 C11.3782394,7.57064789 11.423662,7.62591549 11.4703521,7.68029577 C11.6318873,7.86709859 11.7976901,8.05047887 11.9729577,8.22616901 C12.1486056,8.40185915 12.3324507,8.56808451 12.5196338,8.72966197 C12.5727465,8.77546479 12.627169,8.81961972 12.6811268,8.86419718 C12.8294366,8.98673239 12.9810845,9.105 13.1361972,9.21895775 C13.1858873,9.25538028 13.2343521,9.29307042 13.2848873,9.32864789 C13.4734225,9.46191549 13.6654225,9.59040845 13.8632958,9.71040845 C13.8624085,9.71171831 13.8616056,9.71298592 13.8602958,9.71429577 C13.6752254,9.9593662 13.4811127,10.2036338 13.2797746,10.4469718 C13.2163521,10.5228169 13.148662,10.5977746 13.0843521,10.6736197 C12.9429718,10.8394225 12.8016338,11.0048028 12.6533662,11.169338 C12.6370986,11.187338 12.6190563,11.205338 12.602831,11.2232958 L8.9754507,7.59549296 C8.9934507,7.57964789 9.01060563,7.56207042 9.02856338,7.5461831 C9.19347887,7.39711268 9.36012676,7.25484507 9.52639437,7.11304225 L9.52639437,7.11304225 Z M11.8409155,5.40561972 C11.9977606,5.30877465 12.1528732,5.21539437 12.3054085,5.12839437 C12.3683662,5.09239437 12.4295915,5.06066197 12.4917465,5.02643662 C12.606169,4.96385915 12.7197042,4.90216901 12.8310845,4.84601408 C12.9000423,4.81085915 12.9668873,4.77916901 13.0346197,4.74659155 C13.1365775,4.69732394 13.2376901,4.65021127 13.3362676,4.60652113 C13.4043803,4.57652113 13.4711831,4.54825352 13.5376479,4.52083099 C13.6336056,4.48140845 13.7269859,4.44498592 13.8195634,4.41114085 C13.8829437,4.38802817 13.9464085,4.36529577 14.0080986,4.34471831 C14.1002535,4.31387324 14.1897465,4.28771831 14.2780141,4.26287324 C14.3345915,4.24698592 14.3915915,4.22987324 14.4460141,4.21656338 C14.5402817,4.19387324 14.6293944,4.17714085 14.718507,4.16176056 C14.7613944,4.15449296 14.8067746,4.1441831 14.8488169,4.13860563 C14.9764648,4.12102817 15.0989577,4.11076056 15.2129155,4.11076056 C15.5274507,4.11076056 15.7536761,4.17849296 15.8873662,4.31171831 C15.9165211,4.34129577 15.9430141,4.37598592 15.9662113,4.41498592 C15.9739014,4.42783099 15.9794789,4.44367606 15.9863239,4.45783099 C16.0004789,4.48567606 16.014169,4.51394366 16.0257465,4.54567606 C16.032169,4.56494366 16.0373239,4.58678873 16.0425211,4.6073662 C16.0510563,4.6386338 16.0596338,4.66952113 16.0656338,4.70378873 C16.0699014,4.72778873 16.0724789,4.75394366 16.0759014,4.7796338 C16.0797465,4.81432394 16.0836338,4.84947887 16.0852817,4.88716901 C16.0870563,4.91543662 16.0870563,4.94585915 16.0870563,4.97585915 C16.0870563,5.01443662 16.0865915,5.05428169 16.0844789,5.09543662 C16.0827465,5.12843662 16.080169,5.16228169 16.0767042,5.1965493 C16.0733239,5.23897183 16.068169,5.28266197 16.0621268,5.32766197 C16.0570141,5.36408451 16.0519014,5.40135211 16.0449718,5.43950704 C16.0372817,5.48619718 16.0278592,5.53504225 16.0176338,5.58430986 C16.0090563,5.62373239 16.0009014,5.66357746 15.9910141,5.70430986 C15.9790563,5.75569014 15.9644789,5.80926761 15.9498592,5.86280282 C15.9387465,5.90564789 15.9276338,5.94764789 15.9143239,5.99133803 C15.8975915,6.04833803 15.8779014,6.10702817 15.8582535,6.1661831 C15.8440563,6.20987324 15.830831,6.25271831 15.8145211,6.29771831 C15.7913662,6.36283099 15.7652535,6.43052113 15.7390986,6.49825352 C15.7227887,6.54025352 15.7082535,6.5813662 15.6910986,6.62421127 C15.6559437,6.7103662 15.6174507,6.79943662 15.5771831,6.88943662 C15.5656056,6.91639437 15.5552535,6.94170423 15.542831,6.96912676 C15.4897183,7.08608451 15.432338,7.20604225 15.3710282,7.32857746 C15.3509155,7.36973239 15.327338,7.41257746 15.3059155,7.45415493 C15.2626479,7.53811268 15.2189155,7.62249296 15.1718451,7.70907042 C15.1443803,7.75922535 15.1139577,7.81102817 15.0852254,7.86202817 C15.0398451,7.94256338 14.9948028,8.02271831 14.9464648,8.10452113 C14.9134225,8.1606338 14.8778451,8.21809859 14.8431549,8.2746338 C14.8093521,8.33078873 14.7741972,8.38690141 14.7386197,8.44385915 C14.7343521,8.44128169 14.729662,8.43916901 14.7253521,8.43659155 C14.7039296,8.42374648 14.6833944,8.40916901 14.6619296,8.39628169 C14.5025493,8.29947887 14.3470563,8.19705634 14.1949014,8.0903662 C14.1409014,8.0526338 14.0882535,8.01321127 14.0355211,7.97425352 C13.9121408,7.8834507 13.791338,7.78914085 13.6726056,7.69191549 C13.6233803,7.6511831 13.5736056,7.61133803 13.5252676,7.56980282 C13.3654225,7.43184507 13.2086197,7.29 13.0587042,7.14004225 C12.908662,6.99008451 12.7669437,6.83323944 12.6289014,6.67301408 C12.5873662,6.62505634 12.5479014,6.57574648 12.5076338,6.52690141 C12.4099437,6.40821127 12.314831,6.28652113 12.2240282,6.16267606 C12.1854507,6.10998592 12.1460282,6.05771831 12.1087183,6.00456338 C12.0020704,5.85291549 11.9004507,5.69780282 11.8040704,5.53880282 C11.7903803,5.51653521 11.7749577,5.49511268 11.7616479,5.47242254 C11.7586901,5.46773239 11.7569577,5.46295775 11.7539577,5.45830986 C11.7569155,5.45657746 11.7599155,5.45442254 11.7629577,5.45230986 C11.7891127,5.436 11.8143803,5.42188732 11.8409155,5.40561972 L11.8409155,5.40561972 Z M16.3539296,8.73992958 C16.4238169,8.61866197 16.4902394,8.49828169 16.5549296,8.37912676 C16.5771972,8.33712676 16.6015775,8.29470423 16.6234648,8.25316901 C16.7070423,8.09421127 16.7854225,7.93740845 16.8586901,7.78271831 C16.8771127,7.74371831 16.893,7.70607042 16.9109155,7.66702817 C16.9640704,7.55133803 17.0150282,7.43649296 17.0626056,7.32342254 C17.0852958,7.26853521 17.1059155,7.21504225 17.1272958,7.161 C17.1658732,7.06461972 17.2019155,6.96946479 17.2357183,6.87566197 C17.255831,6.8195493 17.2746761,6.76428169 17.2935211,6.7085493 C17.3243239,6.61643662 17.3522958,6.52605634 17.3783662,6.43605634 C17.393831,6.38421127 17.4095915,6.3323662 17.4229437,6.28178873 C17.4503662,6.18067606 17.4735211,6.08125352 17.4949014,5.98314085 C17.5026338,5.94760563 17.5124366,5.91076056 17.5197887,5.87560563 C17.5206761,5.86871831 17.5232113,5.86149296 17.5240986,5.85460563 C18.1813099,6.99819718 18.560493,8.27974648 18.6321127,9.62252113 C18.5832676,9.61994366 18.5343803,9.61740845 18.4855352,9.61394366 C18.378,9.60583099 18.2704648,9.59552113 18.1633521,9.58394366 C18.0733944,9.57367606 17.9838169,9.56378873 17.8942817,9.55094366 C17.7820141,9.53509859 17.6697465,9.51494366 17.5584085,9.49440845 C17.4786761,9.47983099 17.3985634,9.46740845 17.3192958,9.45067606 C17.1371831,9.41209859 16.9563803,9.36756338 16.7773099,9.31702817 C16.7147746,9.2994507 16.6534648,9.27802817 16.5909296,9.2591831 C16.4637042,9.2201831 16.3364366,9.17995775 16.2113239,9.13533803 C16.1865211,9.12633803 16.1616338,9.11602817 16.1367887,9.10660563 C16.1752817,9.04364789 16.2104789,8.98191549 16.2472817,8.91984507 C16.2832394,8.85992958 16.3192394,8.79950704 16.3539296,8.73992958 L16.3539296,8.73992958 Z M8.24442254,14.9565634 C8.11715493,15.0370986 7.98992958,15.1167887 7.8648169,15.1909014 C7.78939437,15.2359014 7.71485915,15.2770563 7.63985915,15.3194789 C7.52459155,15.3850141 7.4106338,15.4492817 7.29752113,15.5088169 C7.22125352,15.5491268 7.14583099,15.5871972 7.07040845,15.6249718 C6.96240845,15.6788873 6.85533803,15.7307324 6.74991549,15.7791549 C6.67622535,15.8134648 6.60342254,15.846 6.53142254,15.8768873 C6.42773239,15.9214225 6.32704225,15.9621549 6.22723944,16.0002676 C6.15866197,16.0263803 6.09012676,16.053 6.02370423,16.0761127 C5.92343662,16.1112254 5.82659155,16.1412254 5.73105634,16.169493 C5.67105634,16.1870704 5.6093662,16.2067606 5.55152113,16.2217606 C5.44952113,16.2479155 5.35314085,16.2667606 5.25756338,16.284338 C5.21171831,16.2929155 5.16329577,16.3048732 5.1191831,16.311338 C4.98249296,16.3310282 4.85184507,16.3426056 4.73095775,16.3426056 C4.653,16.3426056 4.58015493,16.3382958 4.51242254,16.3301408 C4.48846479,16.3271831 4.46957746,16.3207606 4.44688732,16.3169155 C4.40619718,16.3095634 4.36335211,16.3031831 4.32735211,16.2925352 C4.29261972,16.2821831 4.26477465,16.2676479 4.23435211,16.254338 C4.21504225,16.2457606 4.19277465,16.2398028 4.17566197,16.2299577 C4.14308451,16.2119577 4.11739437,16.1896901 4.09123944,16.1674225 C4.07366197,16.1481127 4.05435211,16.1301127 4.03466197,16.1130423 C4.0128169,16.0877324 3.99139437,16.0624225 3.97339437,16.032 C3.96523944,16.0182676 3.95966197,16.0011972 3.95197183,15.9861549 C3.93739437,15.956662 3.9228169,15.9266197 3.91123944,15.8927746 C3.90397183,15.8722394 3.89970423,15.848662 3.89370423,15.8267746 C3.88512676,15.7937324 3.8765493,15.7611549 3.8705493,15.7248169 C3.86623944,15.6990845 3.86412676,15.6708169 3.86112676,15.6429296 C3.85770423,15.6065493 3.85385915,15.5691972 3.8525493,15.5298169 C3.85128169,15.4989718 3.85212676,15.4663521 3.8525493,15.4342394 C3.85343662,15.3931268 3.85428169,15.3515493 3.85723944,15.3078592 C3.85939437,15.2727465 3.86323944,15.2367042 3.86712676,15.1998592 C3.87223944,15.1544789 3.87823944,15.1082113 3.8855493,15.0606338 C3.89159155,15.0215915 3.8988169,14.9813662 3.90608451,14.9410986 C3.9155493,14.8913662 3.92623944,14.840831 3.93823944,14.7889859 C3.94766197,14.7460986 3.95792958,14.702831 3.96950704,14.6582958 C3.98366197,14.604338 3.99908451,14.5490704 4.01535211,14.4929155 C4.02904225,14.4471127 4.04277465,14.4008028 4.05777465,14.3532254 C4.07661972,14.2945352 4.09761972,14.2336901 4.11904225,14.1728451 C4.13619718,14.1244225 4.15246479,14.0764225 4.17130986,14.0267324 C4.19573239,13.9620423 4.22273239,13.8951972 4.25015493,13.8283521 C4.27073239,13.778662 4.28957746,13.7302394 4.311,13.6792394 C4.34269014,13.6063944 4.37738028,13.5309718 4.41211268,13.4560141 C4.43395775,13.4080141 4.45411268,13.3613239 4.47726761,13.3129014 C4.52222535,13.2194789 4.57111268,13.1234789 4.62080282,13.0270986 C4.63791549,12.9936761 4.65295775,12.9615211 4.67095775,12.9276761 C4.74038028,12.7956761 4.81491549,12.6607606 4.89376056,12.5228028 C4.9091831,12.4953803 4.9271831,12.4666479 4.94349296,12.4388028 C5.00814085,12.3278451 5.07460563,12.216 5.14525352,12.1011972 C5.17394366,12.0553521 5.20567606,12.0073521 5.23478873,11.9606197 C5.28667606,11.8792394 5.3393662,11.7973944 5.39378873,11.7147042 C5.4036338,11.7202817 5.41478873,11.7249718 5.42421127,11.7309718 C5.46190141,11.7532394 5.49790141,11.777662 5.5356338,11.8003944 C5.68432394,11.8908169 5.83039437,11.985507 5.9735493,12.0844648 C6.03008451,12.1238873 6.08577465,12.1645775 6.14150704,12.2053099 C6.26788732,12.2978451 6.39126761,12.3938028 6.51253521,12.4932254 C6.56222535,12.534338 6.61280282,12.5741831 6.66207042,12.6161831 C6.82660563,12.7575634 6.98729577,12.9032535 7.14152113,13.0570986 C7.29490141,13.2104789 7.43970423,13.3707042 7.58028169,13.5343944 C7.62397183,13.5853521 7.66597183,13.6380845 7.70839437,13.6899296 C7.80566197,13.8090423 7.89988732,13.9303099 7.99077465,14.0541127 C8.03277465,14.1115352 8.07473239,14.1685352 8.115,14.2268028 C8.21353521,14.3686479 8.30738028,14.5138732 8.39695775,14.6612535 C8.42007042,14.6993662 8.44491549,14.735831 8.46722535,14.7739437 C8.47322535,14.7837887 8.47791549,14.7940986 8.48349296,14.8039437 C8.47238028,14.8112113 8.46038028,14.8197887 8.44922535,14.8275211 C8.38069014,14.8725634 8.313,14.9132535 8.24442254,14.9565634 L8.24442254,14.9565634 Z M6.26446479,17.6104225 C6.39473239,17.5701127 6.52715493,17.5251127 6.66164789,17.4758451 C6.75507042,17.4415775 6.84933803,17.4064225 6.94529577,17.3674648 C7.08498592,17.3109296 7.22721127,17.2484366 7.37074648,17.1828169 C7.46628169,17.1391268 7.56097183,17.0967465 7.65823944,17.0491268 C7.81204225,16.9737042 7.96842254,16.890169 8.12611268,16.8053239 C8.21738028,16.7560563 8.30738028,16.7102113 8.3994507,16.6574789 C8.58367606,16.5529859 8.77052113,16.4381408 8.95859155,16.3207606 C9.01901408,16.2829859 9.07728169,16.2512958 9.13816901,16.2123803 C9.14501408,16.2311831 9.15228169,16.2496056 9.15874648,16.2680282 C9.21012676,16.4141408 9.25643662,16.5619437 9.29928169,16.7106338 C9.3095493,16.7449437 9.3215493,16.7787465 9.33097183,16.8134789 C9.3815493,16.9969437 9.42523944,17.1819718 9.4638169,17.3683521 C9.47497183,17.4232394 9.48350704,17.478507 9.49377465,17.5337324 C9.51819718,17.667 9.54130986,17.8006901 9.55977465,17.9352254 C9.56923944,18.0046479 9.57692958,18.0745352 9.58461972,18.1442958 C9.59835211,18.2672958 9.60988732,18.3906761 9.61846479,18.5145211 C9.62146479,18.5526338 9.62319718,18.5912113 9.62530986,18.6297887 C8.38276056,18.5625211 7.19032394,18.230493 6.11315493,17.6619296 C6.16208451,17.6477324 6.21477465,17.6258873 6.26446479,17.6104225 L6.26446479,17.6104225 Z M11.1640141,18.5770563 C11.1622817,18.5350563 11.1554366,18.4939437 11.1524366,18.4524085 C11.1395915,18.254831 11.121169,18.0582254 11.0967465,17.8623803 C11.0894366,17.8032676 11.0843239,17.7441127 11.0757042,17.6854225 C11.0405493,17.4381972 10.9969014,17.1927042 10.9437465,16.9489014 C10.9325915,16.8969718 10.9184789,16.8456338 10.9064789,16.794169 C10.860169,16.5966761 10.8083662,16.4009155 10.7500563,16.2067606 C10.7294789,16.1378028 10.7089437,16.0692676 10.6866761,16.0006901 C10.6172535,15.7851549 10.5422958,15.5722394 10.4587183,15.3618592 C10.4505634,15.342169 10.4449859,15.321169 10.436831,15.3014366 C10.4886761,15.2620141 10.5400986,15.2200563 10.5915211,15.1797887 C10.6600986,15.1266338 10.7286338,15.0726761 10.797169,15.0186761 C10.9728592,14.8794085 11.147662,14.7362958 11.3216197,14.5898028 C11.3738873,14.5456479 11.4261549,14.5032676 11.4784225,14.4582676 C11.699493,14.2689296 11.918831,14.0739296 12.1365211,13.8734366 C12.183169,13.8305493 12.2290563,13.7860141 12.2753239,13.7427465 C12.3910141,13.6343239 12.5075493,13.5263239 12.6228592,13.4149437 L15.7335211,16.5256056 C14.4464366,17.6545352 12.860662,18.365831 11.1640141,18.5770563 L11.1640141,18.5770563 Z M16.7931549,15.4132394 L13.6919155,12.3120423 C13.7142254,12.2875775 13.7338732,12.2623521 13.7561831,12.2379296 C14.0140986,11.9534366 14.2643239,11.6667887 14.5025493,11.3779859 C14.5197042,11.3569859 14.5351268,11.3359859 14.5522817,11.3150282 C14.7707746,11.0480704 14.9790845,10.7794225 15.1795775,10.5099296 C15.2035775,10.4782394 15.2301127,10.4465493 15.2541127,10.4148169 C15.2841549,10.4272394 15.3163099,10.4362394 15.3466901,10.4482394 C15.5463803,10.5283521 15.7486056,10.6011972 15.9534085,10.6680423 C16.0129437,10.6877746 16.0724789,10.7078873 16.1324789,10.7263099 C16.371507,10.7995775 16.6131549,10.866 16.8578028,10.9217324 C16.8933803,10.9298451 16.9293803,10.9358451 16.964493,10.9435775 C17.1818028,10.9902254 17.4002535,11.0292676 17.6200986,11.0622254 C17.6822113,11.0712254 17.7443239,11.0811127 17.8064789,11.0892676 C18.0558169,11.1213803 18.3056197,11.1466479 18.5566901,11.1603803 C18.564,11.1608451 18.5712676,11.1621127 18.5781972,11.1625352 C18.384507,12.7216479 17.7683239,14.1874648 16.7931549,15.4132394 L16.7931549,15.4132394 Z M14.2214789,2.69598592 C14.181169,2.70498592 14.1409014,2.71440845 14.1002535,2.72425352 C13.9335634,2.76494366 13.7647606,2.8103662 13.5899155,2.86690141 C13.5856479,2.86821127 13.5818028,2.86994366 13.5779577,2.87121127 C13.4048451,2.9273662 13.2274225,2.99378873 13.0474648,3.06574648 C13.0037746,3.08290141 12.960507,3.10047887 12.9163521,3.11847887 C12.7338592,3.19432394 12.5478592,3.27616901 12.3585211,3.36697183 C12.3362535,3.37812676 12.3130986,3.39059155 12.2899437,3.40170423 C12.1164507,3.4865493 11.940338,3.57866197 11.7621127,3.67592958 C11.7171549,3.70035211 11.673,3.72392958 11.6275775,3.74919718 C11.4506197,3.84815493 11.2719718,3.95142254 11.091169,4.06242254 C11.0834366,4.04053521 11.0740141,4.01869014 11.0663239,3.99684507 C11.0144789,3.85246479 10.9673239,3.70635211 10.9232113,3.55935211 C10.9103239,3.51735211 10.8957887,3.4758169 10.8837887,3.43339437 C10.8306761,3.24485915 10.7835211,3.0546338 10.7432113,2.86267606 C10.7333662,2.81467606 10.7260986,2.76583099 10.7166761,2.71740845 C10.688831,2.57256338 10.6635211,2.42729577 10.6434085,2.28122535 C10.6335634,2.21269014 10.6262958,2.14369014 10.6181408,2.07469014 C10.6035634,1.94573239 10.5911408,1.81588732 10.5821408,1.68608451 C10.5795634,1.64623944 10.5774507,1.6068169 10.5752958,1.56739437 C11.9129577,1.64023944 13.1923099,2.019 14.3324366,2.67029577 C14.2960141,2.67756338 14.2583662,2.68787324 14.2214789,2.69598592 L14.2214789,2.69598592 Z M9.03621127,1.62012676 C9.03878873,1.66123944 9.0456338,1.70197183 9.04821127,1.74266197 C9.06109859,1.94577465 9.0803662,2.148 9.1056338,2.34980282 C9.11290141,2.40891549 9.11847887,2.46807042 9.12705634,2.52676056 C9.16305634,2.77909859 9.20805634,3.0293662 9.26290141,3.27785915 C9.27359155,3.32670423 9.28732394,3.37466197 9.29843662,3.42308451 C9.34685915,3.62661972 9.40128169,3.828 9.46170423,4.02807042 C9.48270423,4.09791549 9.50412676,4.16729577 9.52728169,4.23671831 C9.59750704,4.45225352 9.67377465,4.66521127 9.75866197,4.87512676 C9.76808451,4.89785915 9.77450704,4.9218169 9.78392958,4.9445493 C9.7518169,4.96812676 9.72008451,4.9955493 9.68839437,5.01912676 C9.42316901,5.21666197 9.15883099,5.42188732 8.89571831,5.63653521 C8.87002817,5.65753521 8.84429577,5.67638028 8.81902817,5.69738028 C8.53153521,5.93433803 8.24615493,6.18367606 7.96250704,6.44078873 C7.93766197,6.46347887 7.91197183,6.48405634 7.88670423,6.50674648 L4.78504225,3.40550704 C6.01043662,2.43038028 7.4766338,1.81423944 9.03621127,1.62012676 L9.03621127,1.62012676 Z M3.67267606,4.46556338 L6.78422535,7.57622535 C6.73964789,7.62207042 6.70026761,7.66960563 6.65611268,7.71549296 C6.39688732,7.98629577 6.14623944,8.25921127 5.90416901,8.53597183 C5.8566338,8.59039437 5.80647887,8.64392958 5.7593662,8.6988169 C5.48471831,9.01846479 5.22380282,9.34149296 4.97357746,9.66714085 C4.94915493,9.69883099 4.92130986,9.72967606 4.89688732,9.76140845 C4.875,9.75283099 4.85192958,9.74640845 4.83046479,9.73783099 C4.62223944,9.65514085 4.41185915,9.58056338 4.19894366,9.51198592 C4.12994366,9.49014085 4.06094366,9.4691831 3.99156338,9.44860563 C3.79791549,9.39080282 3.60164789,9.33891549 3.40453521,9.29269014 C3.35269014,9.28069014 3.30173239,9.26653521 3.24988732,9.25495775 C3.00608451,9.20226761 2.76101408,9.15853521 2.51378873,9.12342254 C2.45425352,9.11484507 2.39425352,9.10930986 2.33425352,9.10204225 C2.13887324,9.078 1.94307042,9.05919718 1.74680282,9.04673239 C1.70526761,9.04373239 1.66369014,9.03688732 1.62215493,9.03473239 C1.83287324,7.338 2.54328169,5.75226761 3.67267606,4.46556338 L3.67267606,4.46556338 Z" id="Shape"></path>
                                        <path d="M19.3669437,0.487690141 C19.3669437,0.487690141 18.8339577,0.0741971831 18.3420845,0.52284507 C17.844169,0.97656338 18.281662,1.57301408 18.281662,1.57301408 C20.4316901,3.69008451 21.767662,6.63105634 21.767662,9.87925352 C21.767662,16.3105352 16.5351549,21.5429577 10.1039577,21.5429577 C6.85576056,21.5429577 3.91474648,20.2069859 1.79771831,18.0569577 C1.79771831,18.0569577 1.31569014,17.6151972 0.774971831,18.1242676 C0.234253521,18.6430563 0.712859155,19.1422817 0.712859155,19.1422817 C3.10757746,21.5703803 6.43242254,23.0785775 10.1039577,23.0785775 C10.178493,23.0785775 10.2521831,23.0777324 10.326338,23.0764225 C17.5017887,22.9577746 23.3032394,17.0830563 23.3032394,9.87925352 C23.3032394,6.20767606 21.7950423,2.88278873 19.3669437,0.487690141 L19.3669437,0.487690141 Z" id="Shape"></path>
                                        <path d="M17.489831,28.4459155 L11.3105493,28.4459155 L11.3105493,24.6938873 C11.3105493,24.2701268 10.9669437,23.9260563 10.5427606,23.9260563 C10.1190423,23.9260563 9.77497183,24.2701268 9.77497183,24.6938873 L9.77497183,28.4459155 L3.5964507,28.4459155 C3.17226761,28.4459155 2.82866197,28.7895634 2.82866197,29.2137465 C2.82866197,29.6374648 3.17226761,29.9815352 3.5964507,29.9815352 L17.489831,29.9815352 C17.9140563,29.9815352 18.257662,29.6374648 18.257662,29.2137465 C18.257662,28.7895634 17.9140563,28.4459155 17.489831,28.4459155 L17.489831,28.4459155 Z" id="Shape"></path>
                                    </g>
                                </g>
                            </g>
                        </g>
                    </g>
                </g>
            </g>
        </g>
    </g>
</svg>